<svg xmlns="http://www.w3.org/2000/svg" xmlns:xlink="http://www.w3.org/1999/xlink" viewBox="0 0 160 600"><defs><linearGradient id="linear-gradient" x1="11275.46" y1="-12905.8" x2="11436.21" y2="-12905.8" gradientTransform="matrix(-0.01, -0.66, 0.14, 0, 2022.53, 7537.32)" gradientUnits="userSpaceOnUse"><stop offset="0" stop-opacity="0"/><stop offset="1" stop-opacity="0.3"/></linearGradient></defs><title>bg</title><g style="isolation:isolate"><g id="Layer_2" data-name="Layer 2"><g id="Layer_4" data-name="Layer 4"><rect width="160" height="104" fill="url(#linear-gradient)" style="mix-blend-mode:darken"/><path d="M0,507H160V370C109.22,382.61,56.67,405.46,0,429.35Z" fill="#ffd237"/><rect y="428" width="160" height="172" fill="#006bff"/><rect x="42" y="524" width="51" height="76" fill="#e0f2ff"/><rect x="72" y="507" width="59" height="93" fill="#0d4599"/><rect x="131" y="507" width="14" height="93" fill="#a6e5ff"/><rect x="81" y="514" width="8" height="17" fill="#ffd237"/><rect x="98" y="514" width="8" height="17" fill="#fff"/><rect x="81" y="535" width="8" height="17" fill="#fff"/><rect x="98" y="535" width="8" height="17" fill="#fff"/><rect x="81" y="556" width="8" height="17" fill="#fff"/><rect x="98" y="556" width="8" height="17" fill="#fff"/><rect x="115" y="514" width="8" height="17" fill="#fff"/><rect x="115" y="535" width="8" height="17" fill="#fff"/><rect x="115" y="556" width="8" height="17" fill="#fff"/><polyline points="92 600 92 583 110 583 110 600" fill="none" stroke="#a6e5ff" stroke-miterlimit="10" stroke-width="2"/><path d="M0,483H160V411C116.07,395.14,66,382,0,375Z" fill="#006aff"/><path d="M112.1,28.83h4.84l1.4,4.6c.47,1.53,1.25,4.39,1.25,4.39s.06,0,.07,0,.81-2.91,1.28-4.39l1.47-4.6H126l1.45,4.6c.49,1.58,1.24,4.39,1.24,4.39a0,0,0,0,0,.08,0s.78-2.84,1.25-4.39l1.4-4.6h4.5L131,44.05H126.6l-1.2-3.82c-.47-1.5-1.28-4.41-1.28-4.41a0,0,0,0,0-.07,0s-.82,2.85-1.31,4.38l-1.23,3.85H117Z" fill="#fff"/><rect x="79.49" y="20.79" width="4.9" height="23.26" fill="#fff"/><rect x="88.03" y="20.79" width="4.9" height="23.26" fill="#fff"/><path d="M107.13,36.49a3.54,3.54,0,1,0-7.07,0,3.54,3.54,0,1,0,7.07,0m-11.78,0a8.24,8.24,0,1,1,8.27,8.07,8.06,8.06,0,0,1-8.27-8.07" fill="#fff"/><path d="M51.14,22.94v4.49H59.8s.05,0,0,.06L51.14,42.32a1.37,1.37,0,0,0-.26.86v.87H67.75V39.57H58.38s-.05,0,0-.06l8.8-15a1.08,1.08,0,0,0,.14-.6v-.94Z" fill="#fff"/><path d="M70.87,28.83h4.9V44.05h-4.9Zm2.45-7.62A2.76,2.76,0,1,1,70.53,24a2.79,2.79,0,0,1,2.79-2.76" fill="#fff"/><path d="M36.24,26.19a.2.2,0,0,1,.23.08c.39.44,1.62,1.95,2,2.36a.14.14,0,0,1,0,.2,44.67,44.67,0,0,0-6.81,6.69s0,0,0,0A77.57,77.57,0,0,1,43.47,32V28.4L32.33,19.56,21.17,28.4v4A78.09,78.09,0,0,1,36.24,26.19Z" fill="#fff"/><path d="M27.18,41.39a.19.19,0,0,1-.24,0l-2.08-2.49c-.06-.06-.07-.1,0-.21a39.53,39.53,0,0,1,7-7.6s0-.06,0,0a91.88,91.88,0,0,0-10.66,4.68v8.45h22.3V36A81.85,81.85,0,0,0,27.18,41.39Z" fill="#fff"/><path d="M139.17,26.66a.71.71,0,0,0-.73-.74h-.78V28H138V27.4h.34l.39.64h.4l-.42-.68A.73.73,0,0,0,139.17,26.66Zm-.75.43H138v-.86h.41a.43.43,0,0,1,0,.86Z" fill="#fff"/><path d="M138.34,25.18A1.84,1.84,0,1,0,140.17,27,1.83,1.83,0,0,0,138.34,25.18Zm0,3.32A1.49,1.49,0,1,1,139.82,27,1.49,1.49,0,0,1,138.34,28.5Z" fill="#fff"/><rect width="160" height="600" fill="none"/></g></g></g></svg>