<svg xmlns="http://www.w3.org/2000/svg" viewBox="0 0 160 600"><title>cta</title><g id="Layer_2" data-name="Layer 2"><g id="Layer_22" data-name="Layer 22"><path d="M110.4,382.65h-83a2.53,2.53,0,0,0-2.62,2.43v29.14a2.53,2.53,0,0,0,2.62,2.43H132.15a2.54,2.54,0,0,0,2.63-2.43V385.08a2.54,2.54,0,0,0-2.63-2.43Z" fill="none" stroke="#fff" stroke-miterlimit="10" stroke-width="1.21"/><path d="M43.44,401.46h1.61a1.84,1.84,0,0,0,2,2c1.06,0,1.65-.49,1.65-1.37s-.35-1.12-1.45-1.57l-1.6-.64a2.65,2.65,0,0,1-1.88-2.61c0-1.59,1.29-2.69,3.14-2.69a3,3,0,0,1,3.24,3.07H48.48A1.52,1.52,0,0,0,46.8,396c-.92,0-1.45.47-1.45,1.21s.47,1.12,1.62,1.59l1.45.59a2.68,2.68,0,0,1,1.84,2.7c0,1.68-1.3,2.81-3.25,2.81C44.75,404.9,43.44,403.66,43.44,401.46Z" fill="#fff"/><path d="M57.67,401.91H52.82a1.6,1.6,0,0,0,1.82,1.59,1.42,1.42,0,0,0,1.46-.74h1.54a2.8,2.8,0,0,1-3,2.07,3.43,3.43,0,0,1,0-6.86,3,3,0,0,1,3.12,3.1C57.71,401.33,57.7,401.54,57.67,401.91Zm-1.46-1.17a1.46,1.46,0,0,0-1.65-1.56,1.57,1.57,0,0,0-1.74,1.56Z" fill="#fff"/><path d="M58.69,401.4A3.19,3.19,0,0,1,61.94,398,2.38,2.38,0,0,1,64,399v-.88h1.51v6.53H64v-.89a2.56,2.56,0,0,1-2.1,1.05A3.11,3.11,0,0,1,58.69,401.4Zm5.36,0a1.93,1.93,0,1,0-1.93,2.08A1.88,1.88,0,0,0,64.05,401.4Z" fill="#fff"/><path d="M67.47,398.14H69v1.26a1.77,1.77,0,0,1,1.74-1.35,2.58,2.58,0,0,1,.6.06v1.4a4,4,0,0,0-.6,0c-1.08,0-1.74.82-1.74,2.3v2.89H67.47Z" fill="#fff"/><path d="M71.89,401.4A3.13,3.13,0,0,1,75.14,398c1.82,0,3,1,3.1,2.49H76.71a1.39,1.39,0,0,0-1.57-1.13c-1.08,0-1.72.74-1.72,2.07s.64,2.08,1.72,2.08a1.39,1.39,0,0,0,1.57-1.07h1.53c-.14,1.46-1.28,2.42-3.1,2.42A3.13,3.13,0,0,1,71.89,401.4Z" fill="#fff"/><path d="M85.74,400.56v4.11H84.21v-3.41c0-1.38-.36-2-1.43-2s-1.55.66-1.55,1.81v3.59H79.7v-9.81h1.53v4.19A2.31,2.31,0,0,1,83.36,398C84.93,398,85.74,398.85,85.74,400.56Z" fill="#fff"/><path d="M91.13,398.14h1.52v.91A2.34,2.34,0,0,1,94.78,398c1.57,0,2.38.88,2.38,2.59v4.11H95.64v-3.41c0-1.38-.37-2-1.43-2s-1.56.66-1.56,1.81v3.59H91.13Z" fill="#fff"/><path d="M98.56,401.4a3.45,3.45,0,1,1,3.44,3.43A3.27,3.27,0,0,1,98.56,401.4Zm5.36,0a1.92,1.92,0,1,0-1.92,2.08A1.87,1.87,0,0,0,103.92,401.4Z" fill="#fff"/><path d="M105.73,398.14h1.68l1.36,4.31,1.41-4.31h1.65l1.42,4.31,1.36-4.31h1.68l-2.41,6.53h-1.29L111,400l-1.58,4.65h-1.29Z" fill="#fff"/><rect width="160" height="600" fill="none"/></g></g></svg>