<svg xmlns="http://www.w3.org/2000/svg" viewBox="0 0 160 600"><title>tagline</title><g id="Layer_2" data-name="Layer 2"><g id="Layer_14" data-name="Layer 14"><path d="M-657.89,32.38l3.41,5.52H-657l-3.24-5.21h-3.5V37.9h-2.19V21.1h6a5.52,5.52,0,0,1,5.64,5.81A5.55,5.55,0,0,1-657.89,32.38Zm-5.83-1.66H-660a3.58,3.58,0,0,0,3.57-3.81A3.59,3.59,0,0,0-660,23.07h-3.72Z" transform="translate(690 240)" fill="#fff"/><path d="M-642.09,33h-8.57a3.2,3.2,0,0,0,3.48,3.38,2.9,2.9,0,0,0,2.93-1.63h2.09c-.39,2-2.43,3.46-5,3.46-3.41,0-5.55-2.26-5.55-5.83s2.16-5.81,5.45-5.81a5,5,0,0,1,5.24,5.2A11,11,0,0,1-642.09,33Zm-2-1.61a2.94,2.94,0,0,0-3.22-3.14,3.13,3.13,0,0,0-3.36,3.14Z" transform="translate(690 240)" fill="#fff"/><path d="M-640.21,23.26a1.66,1.66,0,0,1,1.7-1.71,1.67,1.67,0,0,1,1.68,1.71,1.65,1.65,0,0,1-1.68,1.68A1.65,1.65,0,0,1-640.21,23.26Zm.67,3.57h2.06V37.9h-2.06Z" transform="translate(690 240)" fill="#fff"/><path d="M-634.24,26.83h2.09v2a3.37,3.37,0,0,1,3.31-2.3,3.29,3.29,0,0,1,3.53,2.37,3.74,3.74,0,0,1,3.57-2.37c3,0,4,1.92,4,4.34v7h-2.09V31.3c0-2.09-.91-2.95-2.4-2.95s-2.71,1.1-2.71,3.79V37.9H-627V31.47c0-2.4-1-3.12-2.38-3.12-1.7,0-2.73,1.2-2.73,3.79V37.9h-2.09Z" transform="translate(690 240)" fill="#fff"/><path d="M-615.3,32.38c0-3.27,2.09-5.83,5.52-5.83a4.24,4.24,0,0,1,3.89,2.25v-2h2.07V37.9h-2.07V36a4.42,4.42,0,0,1-3.94,2.23C-613.35,38.19-615.3,35.64-615.3,32.38Zm9.51,0a3.67,3.67,0,0,0-3.75-4,3.63,3.63,0,0,0-3.69,4,3.63,3.63,0,0,0,3.69,3.94A3.65,3.65,0,0,0-605.79,32.38Z" transform="translate(690 240)" fill="#fff"/><path d="M-589.86,26.83V37.61a5.58,5.58,0,0,1-1.92,4.66,6.36,6.36,0,0,1-3.82,1,6.83,6.83,0,0,1-3.93-1.08,3.69,3.69,0,0,1-1.63-2.93H-599c.14,1.3,1.25,2.26,3.36,2.26,2.4,0,3.7-1.15,3.7-3.79V36a4.43,4.43,0,0,1-3.94,2.23c-3.38,0-5.47-2.55-5.47-5.81a5.49,5.49,0,0,1,5.52-5.83,4.23,4.23,0,0,1,3.89,2.25v-2Zm-2,5.55a3.69,3.69,0,0,0-3.74-4,3.68,3.68,0,0,0-3.7,4,3.69,3.69,0,0,0,3.7,3.94A3.69,3.69,0,0,0-591.83,32.38Z" transform="translate(690 240)" fill="#fff"/><path d="M-587.26,23.26a1.66,1.66,0,0,1,1.7-1.71,1.66,1.66,0,0,1,1.68,1.71,1.64,1.64,0,0,1-1.68,1.68A1.65,1.65,0,0,1-587.26,23.26Zm.67,3.57h2.06V37.9h-2.06Z" transform="translate(690 240)" fill="#fff"/><path d="M-581.29,26.83h2.09v2.05a3.91,3.91,0,0,1,3.86-2.33c2.71,0,4.11,1.58,4.11,4.53V37.9h-2.07V32c0-2.48-.81-3.65-2.78-3.65s-3.12,1.46-3.12,3.69V37.9h-2.09Z" transform="translate(690 240)" fill="#fff"/><path d="M-558.17,33h-8.57a3.2,3.2,0,0,0,3.48,3.38,2.89,2.89,0,0,0,2.93-1.63h2.09c-.38,2-2.42,3.46-5,3.46-3.4,0-5.54-2.26-5.54-5.83s2.16-5.81,5.45-5.81a5,5,0,0,1,5.23,5.2A11,11,0,0,1-558.17,33Zm-2-1.61a2.93,2.93,0,0,0-3.22-3.14,3.14,3.14,0,0,0-3.36,3.14Z" transform="translate(690 240)" fill="#fff"/><path d="M-646.9,60v1.85a10,10,0,0,1-1.87.16c-1.3,0-3.39-.24-3.39-3.81V52.59h-2V50.83h2v-3.5h2.09v3.5h2.78v1.76h-2.78v5.18c0,2.11.72,2.4,1.78,2.4A8.27,8.27,0,0,0-646.9,60Z" transform="translate(690 240)" fill="#fff"/><path d="M-634.76,55.08V61.9h-2.09V56c0-2.48-.79-3.65-2.78-3.65s-3.12,1.46-3.12,3.69V61.9h-2.09V45.1h2.09v7.78a3.91,3.91,0,0,1,3.86-2.33C-636.15,50.55-634.76,52.13-634.76,55.08Z" transform="translate(690 240)" fill="#fff"/><path d="M-621.69,57h-8.57a3.2,3.2,0,0,0,3.48,3.38,2.9,2.9,0,0,0,2.93-1.63h2.09c-.39,2-2.43,3.46-5,3.46-3.41,0-5.55-2.26-5.55-5.83s2.16-5.81,5.45-5.81a5,5,0,0,1,5.24,5.2A11,11,0,0,1-621.69,57Zm-2-1.61a2.93,2.93,0,0,0-3.22-3.14,3.13,3.13,0,0,0-3.36,3.14Z" transform="translate(690 240)" fill="#fff"/><path d="M-614.47,50.83h2.28l2.64,8.09,2.71-8.09h2.24l2.68,8.09,2.67-8.09H-597L-601,61.9h-1.78l-2.9-8.5-2.91,8.5h-1.75Z" transform="translate(690 240)" fill="#fff"/><path d="M-596.26,56.38c0-3.27,2.08-5.83,5.52-5.83a4.25,4.25,0,0,1,3.89,2.25v-2h2.06V61.9h-2.06V60a4.44,4.44,0,0,1-3.94,2.23C-594.32,62.19-596.26,59.64-596.26,56.38Zm9.5,0a3.67,3.67,0,0,0-3.74-4,3.64,3.64,0,0,0-3.7,4,3.64,3.64,0,0,0,3.7,3.94A3.65,3.65,0,0,0-586.76,56.38Z" transform="translate(690 240)" fill="#fff"/><path d="M-572.13,50.83V62.12a5.21,5.21,0,0,1-1.49,4,5.4,5.4,0,0,1-3.63,1.2A5.68,5.68,0,0,1-581,66.15a3.69,3.69,0,0,1-1.25-2.86h2.09c.1,1.35.82,2.26,2.88,2.26,1.87,0,3.07-1.06,3.07-3.58V59.91A4,4,0,0,1-578,62.16c-2.88,0-4.2-1.92-4.2-4.72V50.83h2.07V57c0,2,.64,3.32,2.83,3.32s3.14-1.8,3.14-3.8V50.83Z" transform="translate(690 240)" fill="#fff"/><path d="M-633.24,79.08V85.9h-2.09V80c0-2.48-.79-3.65-2.78-3.65s-3.12,1.46-3.12,3.69V85.9h-2.09V69.1h2.09v7.78a3.91,3.91,0,0,1,3.86-2.33C-634.63,74.55-633.24,76.13-633.24,79.08Z" transform="translate(690 240)" fill="#fff"/><path d="M-630.85,80.38a5.53,5.53,0,0,1,5.76-5.83,5.54,5.54,0,0,1,5.76,5.83,5.54,5.54,0,0,1-5.76,5.81A5.53,5.53,0,0,1-630.85,80.38Zm9.44,0c0-2.23-1.35-4-3.68-4a3.63,3.63,0,0,0-3.69,4,3.63,3.63,0,0,0,3.69,3.94A3.62,3.62,0,0,0-621.41,80.38Z" transform="translate(690 240)" fill="#fff"/><path d="M-616.85,74.83h2.09v2a3.39,3.39,0,0,1,3.31-2.3,3.28,3.28,0,0,1,3.53,2.37,3.76,3.76,0,0,1,3.58-2.37c3,0,4,1.92,4,4.34v7h-2.08V79.3c0-2.09-.92-3-2.4-3-1.64,0-2.72,1.1-2.72,3.79V85.9h-2.09V79.47c0-2.4-1-3.12-2.37-3.12-1.71,0-2.74,1.2-2.74,3.79V85.9h-2.09Z" transform="translate(690 240)" fill="#fff"/><path d="M-587.27,81h-8.57a3.2,3.2,0,0,0,3.48,3.38,2.89,2.89,0,0,0,2.93-1.63h2.09c-.38,2-2.42,3.46-5,3.46-3.4,0-5.54-2.26-5.54-5.83s2.16-5.81,5.45-5.81a5,5,0,0,1,5.23,5.2A11,11,0,0,1-587.27,81Zm-2-1.61a2.93,2.93,0,0,0-3.22-3.14,3.14,3.14,0,0,0-3.36,3.14Z" transform="translate(690 240)" fill="#fff"/><path d="M-585.08,84.32a1.75,1.75,0,0,1,1.73-1.76,1.77,1.77,0,0,1,1.78,1.76,1.76,1.76,0,0,1-1.78,1.75A1.74,1.74,0,0,1-585.08,84.32Z" transform="translate(690 240)" fill="#fff"/><rect width="160" height="600" fill="none"/></g></g></svg>