<svg xmlns="http://www.w3.org/2000/svg" viewBox="0 0 160 600"><title>txt1a</title><g id="Layer_2" data-name="Layer 2"><g id="Layer_5_copy" data-name="Layer 5 copy"><path d="M22.84,427.09l2.7,4.89H21.49l-2.42-4.27H17.2V432H13.64v-15.4H20.2a5.61,5.61,0,0,1,2.64,10.51Zm-5.64-2.28h2.45a2.67,2.67,0,0,0,0-5.33H17.2Z" fill="#fff"/><path d="M38,427.6H30.12a2.16,2.16,0,0,0,2.48,2.13c1,0,1.7-.28,2-.94h3.3c-.33,2.09-2.46,3.47-5.28,3.47-3.6,0-5.83-2-5.83-5.58s2.27-5.59,5.72-5.59c3.3,0,5.55,2,5.55,5A10.73,10.73,0,0,1,38,427.6Zm-3.23-2.09a2,2,0,0,0-2.25-2.16,2.12,2.12,0,0,0-2.35,2.16Z" fill="#fff"/><path d="M40,421.37h3.37v1.54a3.6,3.6,0,0,1,3.43-1.82c2.58,0,3.87,1.45,3.87,4.33V432H47.26v-5.46c0-1.78-.51-2.59-1.87-2.59s-2,.88-2,2.5V432H40Z" fill="#fff"/><path d="M59.86,429.29V432a13,13,0,0,1-2.24.17c-1.59,0-3.77-.35-3.77-3.89V424H52.18v-2.67h1.67v-3.14h3.37v3.14h2.4V424h-2.4v3.52c0,1.56.64,1.8,1.48,1.8A8.41,8.41,0,0,0,59.86,429.29Z" fill="#fff"/><path d="M61.4,418.4a2.08,2.08,0,1,1,2.07,2.05A2,2,0,0,1,61.4,418.4Zm.4,3h3.34V432H61.8Z" fill="#fff"/><path d="M67.93,421.37H71.3v1.54a3.6,3.6,0,0,1,3.43-1.82c2.58,0,3.88,1.45,3.88,4.33V432H75.22v-5.46c0-1.78-.51-2.59-1.87-2.59s-2,.88-2,2.5V432H67.93Z" fill="#fff"/><path d="M92.25,421.37v9.93a5.21,5.21,0,0,1-2,4.46,6.46,6.46,0,0,1-3.79.95,7.3,7.3,0,0,1-3.82-.86,3.84,3.84,0,0,1-1.9-3h3.44c.15.84.88,1.35,2.24,1.35,1.56,0,2.51-.69,2.51-2.58v-1.41A3.74,3.74,0,0,1,85.56,432c-3.15,0-5-2.29-5-5.41s2-5.48,5.08-5.48a3.57,3.57,0,0,1,3.28,1.8v-1.52ZM89,426.61a2.54,2.54,0,1,0-2.55,2.77A2.54,2.54,0,0,0,89,426.61Z" fill="#fff"/><path d="M98.73,436.29V433.7a3.68,3.68,0,0,0,.82.08c.57,0,.86-.31.86-1v-11.4h3.36v11.82c0,2.22-1.23,3.32-3.43,3.32A4.49,4.49,0,0,1,98.73,436.29ZM100,418.4a2.08,2.08,0,1,1,2.07,2.05A2,2,0,0,1,100,418.4Z" fill="#fff"/><path d="M106.43,427.93v-6.56h3.41v5.81c0,1.45.49,2.25,1.76,2.25,1.43,0,2.05-.93,2.05-2.36v-5.7H117V432h-3.34v-1.52a3.46,3.46,0,0,1-3.3,1.8C107.8,432.26,106.43,430.68,106.43,427.93Z" fill="#fff"/><path d="M119,428.79h3.34c0,.72.71,1.23,1.74,1.23.73,0,1.23-.35,1.23-1s-.24-.77-1.14-1l-2.23-.55a3.09,3.09,0,0,1-2.66-3.1c0-2,1.81-3.32,4.53-3.32,3,0,4.74,1.16,4.74,3.28h-3.33c0-.75-.55-1.15-1.45-1.15-.72,0-1.21.35-1.21.86s.31.79,1.17,1l2.24.62c1.67.44,2.69,1.45,2.69,3.06,0,2.2-1.83,3.49-4.65,3.49C121,432.26,119,430.86,119,428.79Z" fill="#fff"/><path d="M137.34,429.29V432a13,13,0,0,1-2.24.17c-1.58,0-3.76-.35-3.76-3.89V424h-1.67v-2.67h1.67v-3.14h3.36v3.14h2.4V424h-2.4v3.52c0,1.56.64,1.8,1.48,1.8A8.31,8.31,0,0,0,137.34,429.29Z" fill="#fff"/><rect width="160" height="600" fill="none"/></g></g></svg>