<svg xmlns="http://www.w3.org/2000/svg" viewBox="0 0 160 600"><title>txt1b</title><g id="Layer_2" data-name="Layer 2"><g id="Layer_5" data-name="Layer 5"><path d="M24.49,448.37v9.93a5.21,5.21,0,0,1-2,4.46,6.45,6.45,0,0,1-3.78.95,7.31,7.31,0,0,1-3.83-.86,3.84,3.84,0,0,1-1.9-3h3.44c.15.84.88,1.35,2.24,1.35,1.56,0,2.51-.69,2.51-2.58v-1.41A3.74,3.74,0,0,1,17.8,459c-3.15,0-5-2.29-5-5.41s2-5.48,5.08-5.48a3.57,3.57,0,0,1,3.28,1.8v-1.52Zm-3.22,5.24a2.54,2.54,0,1,0-2.55,2.77A2.54,2.54,0,0,0,21.27,453.61Z" fill="#fff"/><path d="M26.42,453.68c0-3.24,2.24-5.59,5.9-5.59s5.87,2.35,5.87,5.59-2.24,5.58-5.87,5.58S26.42,456.91,26.42,453.68Zm8.43,0a2.54,2.54,0,1,0-2.53,2.75A2.49,2.49,0,0,0,34.85,453.68Z" fill="#fff"/><path d="M46.82,456.29V459a13.17,13.17,0,0,1-2.25.17c-1.58,0-3.76-.35-3.76-3.89V451H39.14v-2.67h1.67v-3.14h3.36v3.14h2.4V451h-2.4v3.52c0,1.56.64,1.8,1.48,1.8A8.56,8.56,0,0,0,46.82,456.29Z" fill="#fff"/><path d="M64.44,454.6H56.6a2.17,2.17,0,0,0,2.49,2.13c1,0,1.7-.28,2-.94h3.3c-.33,2.09-2.46,3.47-5.28,3.47-3.61,0-5.83-2-5.83-5.58s2.27-5.59,5.72-5.59,5.55,2,5.55,5A12.59,12.59,0,0,1,64.44,454.6Zm-3.24-2.09A2,2,0,0,0,59,450.35a2.14,2.14,0,0,0-2.36,2.16Z" fill="#fff"/><path d="M65.87,453.68c0-3.17,1.95-5.59,5-5.59a3.62,3.62,0,0,1,3.32,1.8v-1.52h3.34V459H74.23v-1.5a3.81,3.81,0,0,1-3.37,1.78C67.69,459.26,65.87,456.87,65.87,453.68Zm8.49,0a2.54,2.54,0,1,0-5.06,0,2.54,2.54,0,0,0,2.53,2.79A2.51,2.51,0,0,0,74.36,453.68Z" fill="#fff"/><path d="M79.59,455.79h3.35c0,.72.7,1.23,1.74,1.23.72,0,1.23-.35,1.23-1s-.24-.77-1.15-1l-2.22-.55a3.09,3.09,0,0,1-2.66-3.1c0-2,1.8-3.32,4.53-3.32,3,0,4.73,1.16,4.73,3.28H85.82c0-.75-.55-1.15-1.45-1.15-.73,0-1.21.35-1.21.86s.31.79,1.16,1l2.25.62c1.67.44,2.68,1.45,2.68,3.06,0,2.2-1.82,3.49-4.64,3.49C81.6,459.26,79.59,457.86,79.59,455.79Z" fill="#fff"/><path d="M91,445.4A2,2,0,0,1,93,443.33a2.06,2.06,0,1,1,0,4.12A2,2,0,0,1,91,445.4Zm.39,3h3.35V459H91.34Z" fill="#fff"/><path d="M107.82,454.6H100a2.16,2.16,0,0,0,2.48,2.13c1,0,1.7-.28,2-.94h3.3c-.33,2.09-2.46,3.47-5.28,3.47-3.6,0-5.83-2-5.83-5.58s2.27-5.59,5.72-5.59c3.3,0,5.55,2,5.55,5A10.73,10.73,0,0,1,107.82,454.6Zm-3.23-2.09a2,2,0,0,0-2.25-2.16,2.12,2.12,0,0,0-2.35,2.16Z" fill="#fff"/><path d="M109.84,448.37h3.37v2.23a3,3,0,0,1,2.93-2.4,3.17,3.17,0,0,1,.88.09v3.12a8.45,8.45,0,0,0-1-.07c-1.82,0-2.79,1.19-2.79,3.55V459h-3.37Z" fill="#fff"/><path d="M117.15,457a2.18,2.18,0,1,1,2.18,2.16A2.14,2.14,0,0,1,117.15,457Z" fill="#fff"/><rect width="160" height="600" fill="none"/></g></g></svg>