<svg xmlns="http://www.w3.org/2000/svg" viewBox="0 0 160 600"><title>txt2a</title><g id="Layer_2" data-name="Layer 2"><g id="Layer_7_copy_2" data-name="Layer 7 copy 2"><path d="M16.48,419.74H12.25v-3.16h12v3.16H20V432H16.48Z" fill="#fff"/><path d="M36.43,425.42V432H33v-5.46c0-1.78-.5-2.59-1.87-2.59s-2,.88-2,2.5V432H25.76v-15.4h3.37v6.33a3.58,3.58,0,0,1,3.43-1.82C35.13,421.09,36.43,422.54,36.43,425.42Z" fill="#fff"/><path d="M49.46,427.6H41.62a2.17,2.17,0,0,0,2.49,2.13c1,0,1.69-.28,2-.94h3.3c-.33,2.09-2.46,3.47-5.28,3.47-3.61,0-5.83-2-5.83-5.58s2.26-5.59,5.72-5.59c3.3,0,5.54,2,5.54,5A12.52,12.52,0,0,1,49.46,427.6Zm-3.24-2.09A2,2,0,0,0,44,423.35a2.14,2.14,0,0,0-2.36,2.16Z" fill="#fff"/><path d="M56.82,421.37h3.37v1.54a3.62,3.62,0,0,1,6.36.13,3.71,3.71,0,0,1,3.39-2c3,0,3.76,2.09,3.76,4.31V432H70.31v-6c0-1.48-.55-2.09-1.58-2.09s-1.78.59-1.78,2.59V432H63.56v-6c0-1.47-.53-2.06-1.56-2.06s-1.81.59-1.81,2.59V432H56.82Z" fill="#fff"/><path d="M75.52,426.68c0-3.24,2.25-5.59,5.9-5.59s5.88,2.35,5.88,5.59-2.25,5.58-5.88,5.58S75.52,429.91,75.52,426.68Zm8.43,0a2.54,2.54,0,1,0-2.53,2.75A2.48,2.48,0,0,0,84,426.68Z" fill="#fff"/><path d="M88.5,428.79h3.35c0,.72.7,1.23,1.74,1.23.72,0,1.23-.35,1.23-1s-.24-.77-1.14-1l-2.23-.55a3.09,3.09,0,0,1-2.66-3.1c0-2,1.8-3.32,4.53-3.32,3,0,4.73,1.16,4.73,3.28H94.73c0-.75-.55-1.15-1.45-1.15-.73,0-1.21.35-1.21.86s.31.79,1.17,1l2.24.62c1.67.44,2.68,1.45,2.68,3.06,0,2.2-1.82,3.49-4.64,3.49C90.51,432.26,88.5,430.86,88.5,428.79Z" fill="#fff"/><path d="M106.83,429.29V432a13,13,0,0,1-2.24.17c-1.59,0-3.76-.35-3.76-3.89V424H99.15v-2.67h1.68v-3.14h3.36v3.14h2.4V424h-2.4v3.52c0,1.56.64,1.8,1.48,1.8A8.41,8.41,0,0,0,106.83,429.29Z" fill="#fff"/><rect width="160" height="600" fill="none"/></g></g></svg>