<svg xmlns="http://www.w3.org/2000/svg" viewBox="0 0 160 600"><title>txt2b</title><g id="Layer_2" data-name="Layer 2"><g id="Layer_7_copy" data-name="Layer 7 copy"><path d="M13.53,448.37H16.9v2.23a3,3,0,0,1,2.92-2.4,3.09,3.09,0,0,1,.88.09v3.12a8.14,8.14,0,0,0-1-.07c-1.83,0-2.79,1.19-2.79,3.55V459H13.53Z" fill="#fff"/><path d="M32.78,454.6H25a2.16,2.16,0,0,0,2.48,2.13c1,0,1.7-.28,2-.94h3.3c-.33,2.09-2.46,3.47-5.28,3.47-3.6,0-5.83-2-5.83-5.58s2.27-5.59,5.72-5.59,5.55,2,5.55,5A10.73,10.73,0,0,1,32.78,454.6Zm-3.23-2.09a2,2,0,0,0-2.25-2.16A2.12,2.12,0,0,0,25,452.51Z" fill="#fff"/><path d="M34.8,448.37h3.37v1.54a3.6,3.6,0,0,1,3.43-1.82c2.58,0,3.87,1.45,3.87,4.33V459H42.09v-5.46c0-1.78-.51-2.59-1.87-2.59s-2,.88-2,2.5V459H34.8Z" fill="#fff"/><path d="M54.69,456.29V459a13,13,0,0,1-2.24.17c-1.59,0-3.77-.35-3.77-3.89V451H47v-2.67h1.67v-3.14h3.37v3.14h2.4V451h-2.4v3.52c0,1.56.64,1.8,1.48,1.8A8.41,8.41,0,0,0,54.69,456.29Z" fill="#fff"/><path d="M55.79,453.68c0-3.17,2-5.59,5-5.59a3.62,3.62,0,0,1,3.32,1.8v-1.52H67.5V459H64.15v-1.5a3.79,3.79,0,0,1-3.36,1.78C57.62,459.26,55.79,456.87,55.79,453.68Zm8.49,0a2.54,2.54,0,1,0-5.06,0,2.54,2.54,0,0,0,2.53,2.79A2.5,2.5,0,0,0,64.28,453.68Z" fill="#fff"/><path d="M70.29,443.58h3.37V459H70.29Z" fill="#fff"/><rect width="160" height="600" fill="none"/></g></g></svg>