<svg xmlns="http://www.w3.org/2000/svg" viewBox="0 0 160 600"><title>txt2c</title><g id="Layer_2" data-name="Layer 2"><g id="Layer_7" data-name="Layer 7"><path d="M25.23,480.68c0,3.32-2,5.58-5,5.58a3.86,3.86,0,0,1-3.39-1.78v5.9H13.53v-15h3.34v1.52a4,4,0,0,1,3.48-1.8C23.25,475.09,25.23,477.33,25.23,480.68Zm-3.43,0a2.54,2.54,0,1,0-2.51,2.79A2.54,2.54,0,0,0,21.8,480.68Z" fill="#fff"/><path d="M27.26,475.37h3.36v2.23a3,3,0,0,1,2.93-2.4,3.09,3.09,0,0,1,.88.09v3.12a8.42,8.42,0,0,0-1-.07c-1.83,0-2.8,1.19-2.8,3.55V486H27.26Z" fill="#fff"/><path d="M35.33,480.68c0-3.24,2.24-5.59,5.9-5.59s5.87,2.35,5.87,5.59-2.24,5.58-5.87,5.58S35.33,483.91,35.33,480.68Zm8.43,0a2.54,2.54,0,1,0-2.53,2.75A2.49,2.49,0,0,0,43.76,480.68Z" fill="#fff"/><path d="M60.74,480.68c0,3.32-2,5.58-5,5.58a3.86,3.86,0,0,1-3.39-1.78v5.9H49v-15h3.34v1.52a4,4,0,0,1,3.48-1.8C58.76,475.09,60.74,477.33,60.74,480.68Zm-3.43,0a2.54,2.54,0,1,0-2.51,2.79A2.54,2.54,0,0,0,57.31,480.68Z" fill="#fff"/><path d="M73.17,481.6H65.34a2.16,2.16,0,0,0,2.48,2.13c1,0,1.7-.28,2-.94h3.31c-.33,2.09-2.47,3.47-5.29,3.47-3.6,0-5.83-2-5.83-5.58s2.27-5.59,5.72-5.59,5.55,2,5.55,5A10.73,10.73,0,0,1,73.17,481.6Zm-3.23-2.09a2,2,0,0,0-2.25-2.16,2.12,2.12,0,0,0-2.35,2.16Z" fill="#fff"/><path d="M75.19,475.37h3.37v2.23a3,3,0,0,1,2.93-2.4,3.17,3.17,0,0,1,.88.09v3.12a8.45,8.45,0,0,0-1-.07c-1.82,0-2.79,1.19-2.79,3.55V486H75.19Z" fill="#fff"/><path d="M91.34,483.29V486a13,13,0,0,1-2.24.17c-1.59,0-3.77-.35-3.77-3.89V478H83.66v-2.67h1.67v-3.14H88.7v3.14h2.4V478H88.7v3.52c0,1.56.64,1.8,1.48,1.8A8.41,8.41,0,0,0,91.34,483.29Z" fill="#fff"/><path d="M92.88,472.4A2.08,2.08,0,1,1,95,474.45,2,2,0,0,1,92.88,472.4Zm.4,3h3.34V486H93.28Z" fill="#fff"/><path d="M109.76,481.6h-7.84a2.17,2.17,0,0,0,2.49,2.13c1,0,1.69-.28,2-.94h3.3c-.33,2.09-2.46,3.47-5.28,3.47-3.61,0-5.83-2-5.83-5.58s2.26-5.59,5.72-5.59c3.3,0,5.54,2,5.54,5A12.52,12.52,0,0,1,109.76,481.6Zm-3.24-2.09a2,2,0,0,0-2.24-2.16,2.14,2.14,0,0,0-2.36,2.16Z" fill="#fff"/><path d="M111.05,482.79h3.35c0,.72.7,1.23,1.74,1.23.72,0,1.23-.35,1.23-1s-.25-.77-1.15-1l-2.22-.55a3.09,3.09,0,0,1-2.66-3.1c0-2,1.8-3.32,4.53-3.32,3,0,4.73,1.16,4.73,3.28h-3.32c0-.75-.55-1.15-1.45-1.15-.73,0-1.21.35-1.21.86s.3.79,1.16,1l2.25.62c1.67.44,2.68,1.45,2.68,3.06,0,2.2-1.82,3.49-4.64,3.49C113.05,486.26,111.05,484.86,111.05,482.79Z" fill="#fff"/><path d="M122.29,484a2.18,2.18,0,1,1,2.18,2.16A2.15,2.15,0,0,1,122.29,484Z" fill="#fff"/><rect width="160" height="600" fill="none"/></g></g></svg>