<svg xmlns="http://www.w3.org/2000/svg" viewBox="0 0 160 600"><title>txt3a</title><g id="Layer_2" data-name="Layer 2"><g id="Layer_10_copy" data-name="Layer 10 copy"><path d="M12.74,424.28A7.87,7.87,0,0,1,21,416.14a8.14,8.14,0,1,1,0,16.28A7.87,7.87,0,0,1,12.74,424.28Zm12.74,0c0-2.69-1.59-4.95-4.51-4.95s-4.54,2.26-4.51,4.95,1.56,5,4.51,5S25.48,427,25.48,424.28Z" fill="#fff"/><path d="M31.15,421.37h3.37v1.54A3.58,3.58,0,0,1,38,421.09c2.57,0,3.87,1.45,3.87,4.33V432H38.43v-5.46c0-1.78-.5-2.59-1.87-2.59s-2,.88-2,2.5V432H31.15Z" fill="#fff"/><path d="M44.44,416.58h3.37V432H44.44Z" fill="#fff"/><path d="M50.18,418.4a2.08,2.08,0,1,1,2.07,2.05A2,2,0,0,1,50.18,418.4Zm.4,3h3.34V432H50.58Z" fill="#fff"/><path d="M56.71,421.37h3.37v1.54a3.6,3.6,0,0,1,3.43-1.82c2.58,0,3.88,1.45,3.88,4.33V432H64v-5.46c0-1.78-.51-2.59-1.87-2.59s-2.05.88-2.05,2.5V432H56.71Z" fill="#fff"/><path d="M80.41,427.6H72.58a2.16,2.16,0,0,0,2.48,2.13c1,0,1.7-.28,2-.94h3.3c-.33,2.09-2.46,3.47-5.28,3.47-3.61,0-5.83-2-5.83-5.58s2.27-5.59,5.72-5.59c3.3,0,5.55,2,5.55,5A10.73,10.73,0,0,1,80.41,427.6Zm-3.24-2.09a2,2,0,0,0-2.24-2.16,2.12,2.12,0,0,0-2.35,2.16Z" fill="#fff"/><rect width="160" height="600" fill="none"/></g></g></svg>