<svg xmlns="http://www.w3.org/2000/svg" viewBox="0 0 160 600"><title>txt3b</title><g id="Layer_2" data-name="Layer 2"><g id="Layer_10" data-name="Layer 10"><path d="M12.76,453.68c0-3.17,2-5.59,5-5.59a3.62,3.62,0,0,1,3.32,1.8v-1.52h3.34V459H21.12v-1.5a3.8,3.8,0,0,1-3.37,1.78C14.58,459.26,12.76,456.87,12.76,453.68Zm8.49,0a2.54,2.54,0,1,0-5.06,0,2.54,2.54,0,0,0,2.53,2.79A2.51,2.51,0,0,0,21.25,453.68Z" fill="#fff"/><path d="M39,453.68c0,3.32-2,5.58-5,5.58a3.86,3.86,0,0,1-3.39-1.78v5.9H27.26v-15H30.6v1.52a4,4,0,0,1,3.48-1.8C37,448.09,39,450.33,39,453.68Zm-3.43,0A2.54,2.54,0,1,0,33,456.47,2.54,2.54,0,0,0,35.53,453.68Z" fill="#fff"/><path d="M52.69,453.68c0,3.32-2,5.58-5,5.58a3.85,3.85,0,0,1-3.39-1.78v5.9H41v-15h3.35v1.52a4,4,0,0,1,3.47-1.8C50.71,448.09,52.69,450.33,52.69,453.68Zm-3.43,0a2.54,2.54,0,1,0-2.51,2.79A2.55,2.55,0,0,0,49.26,453.68Z" fill="#fff"/><path d="M54.71,443.58h3.37V459H54.71Z" fill="#fff"/><path d="M60.45,445.4a2.08,2.08,0,1,1,2.07,2.05A2,2,0,0,1,60.45,445.4Zm.4,3h3.34V459H60.85Z" fill="#fff"/><path d="M66.15,453.68a5.28,5.28,0,0,1,5.68-5.59c3.17,0,5.23,1.67,5.5,4.31H74c-.24-1-.88-1.45-2.11-1.45-1.45,0-2.33,1-2.33,2.73s.88,2.72,2.33,2.72c1.23,0,1.87-.44,2.11-1.36h3.37c-.27,2.57-2.33,4.22-5.5,4.22A5.28,5.28,0,0,1,66.15,453.68Z" fill="#fff"/><path d="M78.67,453.68c0-3.17,2-5.59,5-5.59a3.62,3.62,0,0,1,3.32,1.8v-1.52h3.35V459H87v-1.5a3.8,3.8,0,0,1-3.37,1.78C80.5,459.26,78.67,456.87,78.67,453.68Zm8.49,0a2.54,2.54,0,1,0-5.06,0,2.54,2.54,0,0,0,2.53,2.79A2.51,2.51,0,0,0,87.16,453.68Z" fill="#fff"/><path d="M99.9,456.29V459a13,13,0,0,1-2.24.17c-1.59,0-3.77-.35-3.77-3.89V451H92.22v-2.67h1.67v-3.14h3.37v3.14h2.4V451h-2.4v3.52c0,1.56.64,1.8,1.47,1.8A8.46,8.46,0,0,0,99.9,456.29Z" fill="#fff"/><path d="M101.44,445.4a2.08,2.08,0,1,1,2.07,2.05A2,2,0,0,1,101.44,445.4Zm.39,3h3.35V459h-3.35Z" fill="#fff"/><path d="M107.14,453.68c0-3.24,2.24-5.59,5.89-5.59s5.88,2.35,5.88,5.59-2.25,5.58-5.88,5.58S107.14,456.91,107.14,453.68Zm8.42,0a2.54,2.54,0,1,0-2.53,2.75A2.48,2.48,0,0,0,115.56,453.68Z" fill="#fff"/><path d="M120.84,448.37h3.37v1.54a3.6,3.6,0,0,1,3.43-1.82c2.58,0,3.87,1.45,3.87,4.33V459h-3.39v-5.46c0-1.78-.5-2.59-1.87-2.59s-2,.88-2,2.5V459h-3.37Z" fill="#fff"/><path d="M133.43,455.79h3.34c0,.72.7,1.23,1.74,1.23.72,0,1.23-.35,1.23-1s-.24-.77-1.14-1l-2.23-.55a3.09,3.09,0,0,1-2.66-3.1c0-2,1.81-3.32,4.53-3.32,3,0,4.73,1.16,4.73,3.28h-3.32c0-.75-.55-1.15-1.45-1.15-.73,0-1.21.35-1.21.86s.31.79,1.17,1l2.24.62c1.67.44,2.68,1.45,2.68,3.06,0,2.2-1.82,3.49-4.64,3.49C135.43,459.26,133.43,457.86,133.43,455.79Z" fill="#fff"/><path d="M144.67,457a2.18,2.18,0,1,1,2.18,2.16A2.14,2.14,0,0,1,144.67,457Z" fill="#fff"/><rect width="160" height="600" fill="none"/></g></g></svg>