<svg xmlns="http://www.w3.org/2000/svg" viewBox="0 0 160 600"><title>txt4a</title><g id="Layer_2" data-name="Layer 2"><g id="Layer_12_copy" data-name="Layer 12 copy"><path d="M22.11,430.11H16.65L16.12,432H12.36l5.22-15.4h3.58L26.4,432H22.64Zm-.79-2.8-1.94-6.84-1.93,6.84Z" fill="#fff"/><path d="M28,421.37h3.37v1.54a3.6,3.6,0,0,1,3.43-1.82c2.58,0,3.88,1.45,3.88,4.33V432H35.29v-5.46c0-1.78-.51-2.59-1.87-2.59s-2.05.88-2.05,2.5V432H28Z" fill="#fff"/><path d="M52.29,416.58V432H49v-1.5a3.8,3.8,0,0,1-3.37,1.78c-3.17,0-5-2.39-5-5.58s2-5.59,5-5.59a3.62,3.62,0,0,1,3.32,1.8v-6.31Zm-3.21,10.1a2.54,2.54,0,1,0-5.06,0,2.54,2.54,0,0,0,2.53,2.79A2.51,2.51,0,0,0,49.08,426.68Z" fill="#fff"/><path d="M59.59,426.68c0-3.24,2.25-5.59,5.9-5.59s5.88,2.35,5.88,5.59-2.25,5.58-5.88,5.58S59.59,429.91,59.59,426.68Zm8.43,0a2.54,2.54,0,1,0-2.53,2.75A2.48,2.48,0,0,0,68,426.68Z" fill="#fff"/><path d="M73.3,421.37h3.37v1.54a3.58,3.58,0,0,1,3.43-1.82c2.57,0,3.87,1.45,3.87,4.33V432H80.58v-5.46c0-1.78-.5-2.59-1.87-2.59s-2,.88-2,2.5V432H73.3Z" fill="#fff"/><path d="M86.59,416.58H90V432H86.59Z" fill="#fff"/><path d="M92.33,418.4a2.08,2.08,0,1,1,2.07,2.05A2,2,0,0,1,92.33,418.4Zm.4,3h3.34V432H92.73Z" fill="#fff"/><path d="M98.86,421.37h3.37v1.54a3.6,3.6,0,0,1,3.43-1.82c2.58,0,3.88,1.45,3.88,4.33V432h-3.39v-5.46c0-1.78-.51-2.59-1.87-2.59s-2,.88-2,2.5V432H98.86Z" fill="#fff"/><path d="M122.56,427.6h-7.83a2.16,2.16,0,0,0,2.48,2.13c1,0,1.7-.28,2-.94h3.3c-.33,2.09-2.46,3.47-5.28,3.47-3.61,0-5.83-2-5.83-5.58s2.27-5.59,5.72-5.59,5.55,2,5.55,5A10.73,10.73,0,0,1,122.56,427.6Zm-3.23-2.09a2,2,0,0,0-2.25-2.16,2.12,2.12,0,0,0-2.35,2.16Z" fill="#fff"/><rect width="160" height="600" fill="none"/></g></g></svg>