<svg xmlns="http://www.w3.org/2000/svg" viewBox="0 0 160 600"><title>txt4b</title><g id="Layer_2" data-name="Layer 2"><g id="Layer_12" data-name="Layer 12"><path d="M25.23,453.68c0,3.32-2,5.58-5,5.58a3.86,3.86,0,0,1-3.39-1.78v5.9H13.53v-15h3.34v1.52a4,4,0,0,1,3.48-1.8C23.25,448.09,25.23,450.33,25.23,453.68Zm-3.43,0a2.54,2.54,0,1,0-2.51,2.79A2.54,2.54,0,0,0,21.8,453.68Z" fill="#fff"/><path d="M26.55,453.68c0-3.17,2-5.59,5-5.59a3.62,3.62,0,0,1,3.32,1.8v-1.52h3.35V459H34.91v-1.5a3.79,3.79,0,0,1-3.36,1.78C28.38,459.26,26.55,456.87,26.55,453.68Zm8.49,0a2.54,2.54,0,1,0-5.06,0,2.54,2.54,0,0,0,2.53,2.79A2.5,2.5,0,0,0,35,453.68Z" fill="#fff"/><path d="M51.59,448.37v10.28a5,5,0,0,1-1.52,3.83,5.57,5.57,0,0,1-3.89,1.23,5.94,5.94,0,0,1-3.92-1.1,3.76,3.76,0,0,1-1.32-2.8h3.39c.06.91.57,1.44,1.85,1.44s2-.73,2-2.38v-1.65A3.54,3.54,0,0,1,44.86,459c-2.71,0-3.92-1.81-3.92-4.45v-6.16h3.37V454c0,1.36.46,2.29,1.87,2.29s2-1.06,2-2.69v-5.26Z" fill="#fff"/><path d="M54.36,448.37h3.37v1.54a3.62,3.62,0,0,1,6.35.13,3.72,3.72,0,0,1,3.39-2c3,0,3.77,2.09,3.77,4.31V459H67.85v-6c0-1.48-.55-2.09-1.59-2.09s-1.78.59-1.78,2.59V459H61.09v-6c0-1.47-.53-2.06-1.56-2.06s-1.8.59-1.8,2.59V459H54.36Z" fill="#fff"/><path d="M84.24,454.6H76.4a2.17,2.17,0,0,0,2.49,2.13c1,0,1.69-.28,2-.94h3.3c-.33,2.09-2.46,3.47-5.28,3.47-3.61,0-5.83-2-5.83-5.58s2.27-5.59,5.72-5.59c3.3,0,5.54,2,5.54,5A12.52,12.52,0,0,1,84.24,454.6ZM81,452.51a2,2,0,0,0-2.24-2.16,2.14,2.14,0,0,0-2.36,2.16Z" fill="#fff"/><path d="M86.26,448.37h3.37v1.54a3.58,3.58,0,0,1,3.43-1.82c2.57,0,3.87,1.45,3.87,4.33V459H93.54v-5.46c0-1.78-.5-2.59-1.87-2.59s-2,.88-2,2.5V459H86.26Z" fill="#fff"/><path d="M106.15,456.29V459a13.17,13.17,0,0,1-2.25.17c-1.58,0-3.76-.35-3.76-3.89V451H98.47v-2.67h1.67v-3.14h3.37v3.14h2.4V451h-2.4v3.52c0,1.56.64,1.8,1.47,1.8A8.46,8.46,0,0,0,106.15,456.29Z" fill="#fff"/><path d="M107.25,455.79h3.34c0,.72.71,1.23,1.74,1.23.73,0,1.23-.35,1.23-1s-.24-.77-1.14-1l-2.22-.55a3.09,3.09,0,0,1-2.67-3.1c0-2,1.81-3.32,4.54-3.32,3,0,4.73,1.16,4.73,3.28h-3.33c0-.75-.55-1.15-1.45-1.15-.72,0-1.21.35-1.21.86s.31.79,1.17,1l2.24.62c1.68.44,2.69,1.45,2.69,3.06,0,2.2-1.83,3.49-4.65,3.49C109.25,459.26,107.25,457.86,107.25,455.79Z" fill="#fff"/><path d="M118.49,457a2.18,2.18,0,1,1,2.18,2.16A2.15,2.15,0,0,1,118.49,457Z" fill="#fff"/><rect width="160" height="600" fill="none"/></g></g></svg>