<svg xmlns="http://www.w3.org/2000/svg" viewBox="0 0 300 250"><title>cta</title><g id="Layer_2" data-name="Layer 2"><g id="Layer_12" data-name="Layer 12"><path d="M186.64,159.19H87.34a3,3,0,0,0-3.15,2.9V197a3,3,0,0,0,3.15,2.91H212.66a3,3,0,0,0,3.15-2.91V162.09a3,3,0,0,0-3.15-2.9Z" fill="none" stroke="#fff" stroke-miterlimit="10" stroke-width="1.44"/><path d="M119.56,180.32h1.61a1.84,1.84,0,0,0,1.94,2.05c1.07,0,1.66-.49,1.66-1.37s-.35-1.13-1.46-1.57l-1.6-.65a2.63,2.63,0,0,1-1.87-2.6c0-1.6,1.29-2.69,3.13-2.69a3,3,0,0,1,3.24,3.06H124.6a1.53,1.53,0,0,0-1.68-1.69c-.93,0-1.46.48-1.46,1.22s.48,1.12,1.63,1.58l1.44.59a2.68,2.68,0,0,1,1.85,2.7c0,1.68-1.3,2.82-3.25,2.82C120.86,183.77,119.56,182.52,119.56,180.32Z" fill="#fff"/><path d="M133.88,179.43v4.1h-1.52v-3.4c0-1.39-.37-2-1.43-2s-1.56.66-1.56,1.8v3.59h-1.52v-9.81h1.52v4.19a2.32,2.32,0,0,1,2.13-1.08C133.07,176.83,133.88,177.72,133.88,179.43Z" fill="#fff"/><path d="M135.28,180.27a3.45,3.45,0,1,1,3.44,3.43A3.28,3.28,0,0,1,135.28,180.27Zm5.36,0a1.92,1.92,0,1,0-1.92,2.07A1.88,1.88,0,0,0,140.64,180.27Z" fill="#fff"/><path d="M150.46,180.27a3.19,3.19,0,0,1-3.21,3.43,2.53,2.53,0,0,1-2.1-1v3.82h-1.51V177h1.51v.88a2.64,2.64,0,0,1,2.2-1C149.21,176.83,150.46,178.21,150.46,180.27Zm-1.53,0a1.93,1.93,0,1,0-1.9,2.07A1.91,1.91,0,0,0,148.93,180.27Z" fill="#fff"/><path d="M155.42,177H157v.91a2.32,2.32,0,0,1,2.13-1.08c1.57,0,2.38.89,2.38,2.6v4.1h-1.52v-3.4c0-1.39-.37-2-1.43-2s-1.56.66-1.56,1.8v3.59h-1.53Z" fill="#fff"/><path d="M162.86,180.27a3.45,3.45,0,1,1,3.44,3.43A3.28,3.28,0,0,1,162.86,180.27Zm5.36,0a1.92,1.92,0,1,0-1.92,2.07A1.88,1.88,0,0,0,168.22,180.27Z" fill="#fff"/><path d="M170,177h1.68l1.36,4.32,1.41-4.32h1.65l1.42,4.32,1.36-4.32h1.68l-2.41,6.53h-1.29l-1.58-4.65-1.59,4.65h-1.28Z" fill="#fff"/><rect width="300" height="250" fill="none"/></g></g></svg>