<svg xmlns="http://www.w3.org/2000/svg" viewBox="0 0 300 250"><title>txt1b</title><g id="Layer_2" data-name="Layer 2"><g id="txt1b"><path d="M32.85,165.41v10.82a5.64,5.64,0,0,1-2.23,4.87,7,7,0,0,1-4.13,1,8,8,0,0,1-4.17-.94A4.18,4.18,0,0,1,20.25,178H24c.17.92,1,1.47,2.45,1.47,1.7,0,2.73-.74,2.73-2.81V175.1A4.06,4.06,0,0,1,25.56,177c-3.44,0-5.5-2.5-5.5-5.91s2.21-6,5.55-6a3.87,3.87,0,0,1,3.57,2v-1.65Zm-3.5,5.71a2.77,2.77,0,1,0-2.78,3A2.77,2.77,0,0,0,29.35,171.12Z" fill="#fff"/><path d="M35,171.19c0-3.53,2.45-6.09,6.44-6.09s6.41,2.56,6.41,6.09-2.45,6.1-6.41,6.1S35,174.72,35,171.19Zm9.2,0a2.77,2.77,0,1,0-2.76,3A2.72,2.72,0,0,0,44.16,171.19Z" fill="#fff"/><path d="M57.21,174.05V177a14.89,14.89,0,0,1-2.44.19c-1.73,0-4.11-.39-4.11-4.25v-4.61H48.84v-2.9h1.82V162h3.67v3.44H57v2.9H54.33v3.84c0,1.71.7,2,1.61,2A9.92,9.92,0,0,0,57.21,174.05Z" fill="#fff"/><path d="M76.44,172.2H67.89c.07,1.51,1.08,2.33,2.72,2.33,1.12,0,1.84-.31,2.16-1h3.6c-.36,2.28-2.69,3.79-5.76,3.79-3.94,0-6.36-2.23-6.36-6.1s2.47-6.09,6.24-6.09c3.6,0,6,2.23,6,5.49A12.92,12.92,0,0,1,76.44,172.2Zm-3.53-2.28a2.17,2.17,0,0,0-2.45-2.35,2.32,2.32,0,0,0-2.57,2.35Z" fill="#fff"/><path d="M78,171.19c0-3.46,2.13-6.09,5.49-6.09a4,4,0,0,1,3.63,2v-1.65h3.65V177H87.12v-1.64a4.16,4.16,0,0,1-3.67,1.95C80,177.29,78,174.67,78,171.19Zm9.26,0a2.77,2.77,0,1,0-5.52,0,2.77,2.77,0,0,0,2.76,3.05C86.33,174.24,87.26,172.87,87.26,171.19Z" fill="#fff"/><path d="M93,173.5h3.65c0,.79.77,1.34,1.9,1.34.79,0,1.34-.38,1.34-1.06,0-.52-.26-.84-1.25-1.08l-2.42-.6a3.37,3.37,0,0,1-2.91-3.38c0-2.18,2-3.62,5-3.62,3.26,0,5.16,1.27,5.16,3.57H99.77c0-.81-.6-1.25-1.59-1.25-.79,0-1.32.39-1.32.94s.34.86,1.27,1.1l2.45.67c1.83.49,2.93,1.59,2.93,3.34,0,2.4-2,3.82-5.06,3.82C95.16,177.29,93,175.75,93,173.5Z" fill="#fff"/><path d="M105.36,162.17a2.21,2.21,0,0,1,2.25-2.26,2.25,2.25,0,1,1,0,4.49A2.2,2.2,0,0,1,105.36,162.17Zm.43,3.24h3.65V177h-3.65Z" fill="#fff"/><path d="M123.76,172.2h-8.54c.07,1.51,1.08,2.33,2.71,2.33,1.13,0,1.85-.31,2.16-1h3.6c-.36,2.28-2.69,3.79-5.76,3.79-3.93,0-6.36-2.23-6.36-6.1s2.47-6.09,6.24-6.09c3.6,0,6,2.23,6,5.49A11.31,11.31,0,0,1,123.76,172.2Zm-3.52-2.28a2.18,2.18,0,0,0-2.45-2.35,2.31,2.31,0,0,0-2.57,2.35Z" fill="#fff"/><path d="M126,165.41h3.67v2.42a3.25,3.25,0,0,1,3.2-2.62,3.67,3.67,0,0,1,1,.1v3.41a8.07,8.07,0,0,0-1.11-.07c-2,0-3.05,1.29-3.05,3.86V177H126Z" fill="#fff"/><path d="M133.94,174.86a2.38,2.38,0,1,1,2.38,2.36A2.35,2.35,0,0,1,133.94,174.86Z" fill="#fff"/><rect width="300" height="250" fill="none"/></g></g></svg>