<svg xmlns="http://www.w3.org/2000/svg" viewBox="0 0 300 250"><title>txt1a</title><g id="Layer_2" data-name="Layer 2"><g id="txt1a"><path d="M31.05,146.65,34,152H29.59L27,147.32h-2V152H21V135.17h7.15a6.13,6.13,0,0,1,2.88,11.48Zm-6.14-2.5h2.66a2.91,2.91,0,0,0,0-5.81H24.91Z" fill="#fff"/><path d="M47.54,147.2H39c.07,1.51,1.08,2.33,2.71,2.33,1.13,0,1.85-.31,2.16-1h3.6c-.36,2.28-2.69,3.79-5.76,3.79-3.94,0-6.36-2.23-6.36-6.1s2.47-6.09,6.24-6.09c3.6,0,6,2.23,6,5.49A13,13,0,0,1,47.54,147.2ZM44,144.92a2.16,2.16,0,0,0-2.44-2.35A2.31,2.31,0,0,0,39,144.92Z" fill="#fff"/><path d="M49.75,140.41h3.67v1.68a3.92,3.92,0,0,1,3.75-2c2.8,0,4.22,1.58,4.22,4.72V152h-3.7v-6c0-1.94-.55-2.83-2-2.83s-2.23,1-2.23,2.74v6H49.75Z" fill="#fff"/><path d="M71.45,149.05V152a15.14,15.14,0,0,1-2.45.19c-1.73,0-4.11-.39-4.11-4.25v-4.61H63.07v-2.9h1.82V137h3.68v3.44h2.61v2.9H68.57v3.84c0,1.71.69,2,1.6,2A10.19,10.19,0,0,0,71.45,149.05Z" fill="#fff"/><path d="M73.12,137.17a2.27,2.27,0,1,1,2.26,2.23A2.21,2.21,0,0,1,73.12,137.17Zm.44,3.24h3.65V152H73.56Z" fill="#fff"/><path d="M80.25,140.41h3.67v1.68a3.94,3.94,0,0,1,3.75-2c2.81,0,4.22,1.58,4.22,4.72V152H88.2v-6c0-1.94-.55-2.83-2-2.83s-2.24,1-2.24,2.74v6H80.25Z" fill="#fff"/><path d="M106.77,140.41v10.82a5.64,5.64,0,0,1-2.23,4.87,7,7,0,0,1-4.13,1,8,8,0,0,1-4.17-.94A4.18,4.18,0,0,1,94.17,153h3.75c.16.92,1,1.47,2.45,1.47,1.7,0,2.73-.74,2.73-2.81V150.1A4.06,4.06,0,0,1,99.48,152c-3.44,0-5.5-2.5-5.5-5.91s2.21-6,5.54-6a3.88,3.88,0,0,1,3.58,2v-1.65Zm-3.5,5.71a2.77,2.77,0,1,0-2.78,3A2.77,2.77,0,0,0,103.27,146.12Z" fill="#fff"/><path d="M113.85,156.68v-2.83a3.68,3.68,0,0,0,.89.09c.62,0,.94-.33.94-1.1V140.41h3.67V153.3c0,2.42-1.35,3.62-3.75,3.62A5,5,0,0,1,113.85,156.68Zm1.42-19.51a2.21,2.21,0,0,1,2.25-2.26,2.25,2.25,0,1,1,0,4.49A2.2,2.2,0,0,1,115.27,137.17Z" fill="#fff"/><path d="M122.25,147.56v-7.15H126v6.33c0,1.59.53,2.45,1.92,2.45,1.56,0,2.23-1,2.23-2.57v-6.21h3.65V152h-3.65v-1.66a3.78,3.78,0,0,1-3.6,2C123.74,152.29,122.25,150.56,122.25,147.56Z" fill="#fff"/><path d="M136,148.5h3.65c0,.79.77,1.34,1.89,1.34.8,0,1.35-.38,1.35-1.06,0-.52-.27-.84-1.25-1.08l-2.42-.6a3.37,3.37,0,0,1-2.91-3.38c0-2.18,2-3.62,5-3.62,3.26,0,5.16,1.27,5.16,3.57h-3.63c0-.81-.6-1.25-1.58-1.25-.79,0-1.32.39-1.32.94s.33.86,1.27,1.1l2.45.67c1.82.49,2.93,1.59,2.93,3.34,0,2.4-2,3.82-5.07,3.82C138.16,152.29,136,150.75,136,148.5Z" fill="#fff"/><path d="M156,149.05V152a15,15,0,0,1-2.45.19c-1.72,0-4.1-.39-4.1-4.25v-4.61H147.6v-2.9h1.82V137h3.67v3.44h2.62v2.9h-2.62v3.84c0,1.71.7,2,1.61,2A9.92,9.92,0,0,0,156,149.05Z" fill="#fff"/><rect width="300" height="250" fill="none"/></g></g></svg>