<svg xmlns="http://www.w3.org/2000/svg" viewBox="0 0 300 250"><title>txt2b</title><g id="Layer_2" data-name="Layer 2"><g id="txt2b"><path d="M33.67,171.19c0,3.63-2.23,6.1-5.42,6.1a4.21,4.21,0,0,1-3.7-1.95v6.44H20.9V165.41h3.65v1.65a4.33,4.33,0,0,1,3.79-2C31.51,165.1,33.67,167.54,33.67,171.19Zm-3.74,0a2.77,2.77,0,1,0-2.74,3.05A2.77,2.77,0,0,0,29.93,171.19Z" fill="#fff"/><path d="M35.88,165.41h3.67v2.42a3.24,3.24,0,0,1,3.19-2.62,3.67,3.67,0,0,1,1,.1v3.41a7.92,7.92,0,0,0-1.1-.07c-2,0-3.05,1.29-3.05,3.86V177H35.88Z" fill="#fff"/><path d="M44.68,171.19c0-3.53,2.45-6.09,6.44-6.09s6.41,2.56,6.41,6.09-2.45,6.1-6.41,6.1S44.68,174.72,44.68,171.19Zm9.2,0a2.77,2.77,0,1,0-2.76,3A2.71,2.71,0,0,0,53.88,171.19Z" fill="#fff"/><path d="M72.41,171.19c0,3.63-2.24,6.1-5.43,6.1a4.19,4.19,0,0,1-3.69-1.95v6.44H59.64V165.41h3.65v1.65a4.33,4.33,0,0,1,3.79-2C70.25,165.1,72.41,167.54,72.41,171.19Zm-3.75,0a2.77,2.77,0,1,0-2.73,3.05A2.77,2.77,0,0,0,68.66,171.19Z" fill="#fff"/><path d="M86,172.2H77.42c.07,1.51,1.08,2.33,2.71,2.33,1.13,0,1.85-.31,2.16-1h3.6c-.36,2.28-2.68,3.79-5.76,3.79-3.93,0-6.36-2.23-6.36-6.1s2.47-6.09,6.24-6.09c3.6,0,6,2.23,6,5.49A11.31,11.31,0,0,1,86,172.2Zm-3.52-2.28A2.18,2.18,0,0,0,80,167.57a2.31,2.31,0,0,0-2.57,2.35Z" fill="#fff"/><path d="M88.17,165.41h3.67v2.42a3.25,3.25,0,0,1,3.2-2.62,3.67,3.67,0,0,1,1,.1v3.41a8.07,8.07,0,0,0-1.11-.07c-2,0-3,1.29-3,3.86V177H88.17Z" fill="#fff"/><path d="M105.79,174.05V177a15,15,0,0,1-2.45.19c-1.73,0-4.1-.39-4.1-4.25v-4.61H97.41v-2.9h1.83V162h3.67v3.44h2.61v2.9h-2.61v3.84c0,1.71.69,2,1.61,2A10.13,10.13,0,0,0,105.79,174.05Z" fill="#fff"/><path d="M107.47,162.17a2.21,2.21,0,0,1,2.25-2.26,2.25,2.25,0,1,1,0,4.49A2.2,2.2,0,0,1,107.47,162.17Zm.43,3.24h3.65V177H107.9Z" fill="#fff"/><path d="M125.88,172.2h-8.55c.07,1.51,1.08,2.33,2.71,2.33,1.13,0,1.85-.31,2.16-1h3.6c-.36,2.28-2.68,3.79-5.76,3.79-3.93,0-6.36-2.23-6.36-6.1s2.48-6.09,6.24-6.09c3.6,0,6,2.23,6,5.49A12.92,12.92,0,0,1,125.88,172.2Zm-3.53-2.28a2.18,2.18,0,0,0-2.45-2.35,2.32,2.32,0,0,0-2.57,2.35Z" fill="#fff"/><path d="M127.29,173.5h3.65c0,.79.77,1.34,1.89,1.34.8,0,1.35-.38,1.35-1.06,0-.52-.26-.84-1.25-1.08l-2.42-.6a3.37,3.37,0,0,1-2.91-3.38c0-2.18,2-3.62,5-3.62,3.26,0,5.16,1.27,5.16,3.57h-3.63c0-.81-.6-1.25-1.58-1.25-.79,0-1.32.39-1.32.94s.34.86,1.27,1.1l2.45.67c1.82.49,2.93,1.59,2.93,3.34,0,2.4-2,3.82-5.07,3.82C129.48,177.29,127.29,175.75,127.29,173.5Z" fill="#fff"/><path d="M139.55,174.86a2.38,2.38,0,1,1,2.38,2.36A2.35,2.35,0,0,1,139.55,174.86Z" fill="#fff"/><rect width="300" height="250" fill="none"/></g></g></svg>