<svg xmlns="http://www.w3.org/2000/svg" viewBox="0 0 300 250"><title>txt3b</title><g id="Layer_2" data-name="Layer 2"><g id="txt3b"><path d="M20.06,171.19c0-3.46,2.14-6.09,5.5-6.09a4,4,0,0,1,3.62,2v-1.65h3.65V177H29.18v-1.64a4.13,4.13,0,0,1-3.67,1.95C22.05,177.29,20.06,174.67,20.06,171.19Zm9.27,0a2.77,2.77,0,1,0-5.52,0,2.77,2.77,0,1,0,5.52,0Z" fill="#fff"/><path d="M48.65,171.19c0,3.63-2.24,6.1-5.43,6.1a4.2,4.2,0,0,1-3.69-1.95v6.44H35.88V165.41h3.65v1.65a4.33,4.33,0,0,1,3.79-2C46.49,165.1,48.65,167.54,48.65,171.19Zm-3.75,0a2.77,2.77,0,1,0-2.73,3.05A2.77,2.77,0,0,0,44.9,171.19Z" fill="#fff"/><path d="M63.62,171.19c0,3.63-2.23,6.1-5.42,6.1a4.21,4.21,0,0,1-3.7-1.95v6.44H50.85V165.41H54.5v1.65a4.35,4.35,0,0,1,3.79-2C61.46,165.1,63.62,167.54,63.62,171.19Zm-3.74,0a2.77,2.77,0,1,0-2.74,3.05A2.77,2.77,0,0,0,59.88,171.19Z" fill="#fff"/><path d="M65.83,160.17H69.5V177H65.83Z" fill="#fff"/><path d="M72.09,162.17a2.27,2.27,0,1,1,2.26,2.23A2.21,2.21,0,0,1,72.09,162.17Zm.43,3.24h3.65V177H72.52Z" fill="#fff"/><path d="M78.31,171.19c0-3.65,2.37-6.09,6.19-6.09,3.46,0,5.71,1.82,6,4.7H86.83c-.27-1.08-1-1.59-2.31-1.59-1.58,0-2.54,1.06-2.54,3s1,3,2.54,3c1.35,0,2-.48,2.31-1.49H90.5c-.29,2.81-2.54,4.61-6,4.61C80.68,177.29,78.31,174.84,78.31,171.19Z" fill="#fff"/><path d="M92,171.19c0-3.46,2.14-6.09,5.5-6.09a4,4,0,0,1,3.62,2v-1.65h3.65V177h-3.65v-1.64a4.13,4.13,0,0,1-3.67,1.95C94,177.29,92,174.67,92,171.19Zm9.27,0a2.77,2.77,0,1,0-5.52,0,2.77,2.77,0,1,0,5.52,0Z" fill="#fff"/><path d="M115.12,174.05V177a14.89,14.89,0,0,1-2.44.19c-1.73,0-4.11-.39-4.11-4.25v-4.61h-1.82v-2.9h1.82V162h3.67v3.44h2.62v2.9h-2.62v3.84c0,1.71.7,2,1.61,2A9.92,9.92,0,0,0,115.12,174.05Z" fill="#fff"/><path d="M116.8,162.17a2.27,2.27,0,1,1,2.26,2.23A2.21,2.21,0,0,1,116.8,162.17Zm.44,3.24h3.64V177h-3.64Z" fill="#fff"/><path d="M123,171.19c0-3.53,2.45-6.09,6.43-6.09s6.41,2.56,6.41,6.09-2.45,6.1-6.41,6.1S123,174.72,123,171.19Zm9.19,0a2.77,2.77,0,1,0-2.76,3A2.71,2.71,0,0,0,132.21,171.19Z" fill="#fff"/><path d="M138,165.41h3.67v1.68a3.94,3.94,0,0,1,3.75-2c2.81,0,4.22,1.58,4.22,4.72V177h-3.69v-6c0-1.94-.56-2.83-2-2.83s-2.24,1-2.24,2.74v6H138Z" fill="#fff"/><path d="M151.7,173.5h3.65c0,.79.77,1.34,1.89,1.34.8,0,1.35-.38,1.35-1.06,0-.52-.27-.84-1.25-1.08l-2.42-.6a3.37,3.37,0,0,1-2.91-3.38c0-2.18,2-3.62,5-3.62,3.26,0,5.16,1.27,5.16,3.57h-3.63c0-.81-.6-1.25-1.58-1.25-.79,0-1.32.39-1.32.94s.33.86,1.27,1.1l2.45.67c1.82.49,2.93,1.59,2.93,3.34,0,2.4-2,3.82-5.07,3.82C153.88,177.29,151.7,175.75,151.7,173.5Z" fill="#fff"/><path d="M164,174.86a2.38,2.38,0,1,1,2.38,2.36A2.35,2.35,0,0,1,164,174.86Z" fill="#fff"/><rect width="300" height="250" fill="none"/></g></g></svg>