<svg xmlns="http://www.w3.org/2000/svg" viewBox="0 0 300 250"><title>txt3a</title><g id="Layer_2" data-name="Layer 2"><g id="txt3a"><path d="M20,143.58a8.58,8.58,0,0,1,9-8.88,8.88,8.88,0,1,1,0,17.76A8.59,8.59,0,0,1,20,143.58Zm13.89,0c0-2.93-1.72-5.41-4.92-5.41s-4.94,2.48-4.92,5.41S25.8,149,29,149,33.93,146.5,33.93,143.58Z" fill="#fff"/><path d="M40.13,140.41H43.8v1.68a3.91,3.91,0,0,1,3.74-2c2.81,0,4.23,1.58,4.23,4.72V152h-3.7v-6c0-1.94-.55-2.83-2-2.83s-2.23,1-2.23,2.74v6H40.13Z" fill="#fff"/><path d="M54.62,135.17h3.67V152H54.62Z" fill="#fff"/><path d="M60.88,137.17a2.27,2.27,0,1,1,2.26,2.23A2.21,2.21,0,0,1,60.88,137.17Zm.44,3.24H65V152H61.32Z" fill="#fff"/><path d="M68,140.41h3.67v1.68a3.94,3.94,0,0,1,3.75-2c2.81,0,4.22,1.58,4.22,4.72V152H76v-6c0-1.94-.55-2.83-2-2.83s-2.24,1-2.24,2.74v6H68Z" fill="#fff"/><path d="M93.86,147.2H85.32c.07,1.51,1.08,2.33,2.71,2.33,1.13,0,1.85-.31,2.16-1h3.6c-.36,2.28-2.69,3.79-5.76,3.79-3.94,0-6.36-2.23-6.36-6.1s2.47-6.09,6.24-6.09c3.6,0,6,2.23,6,5.49A13,13,0,0,1,93.86,147.2Zm-3.53-2.28a2.17,2.17,0,0,0-2.45-2.35,2.31,2.31,0,0,0-2.56,2.35Z" fill="#fff"/><rect width="300" height="250" fill="none"/></g></g></svg>