<svg xmlns="http://www.w3.org/2000/svg" viewBox="0 0 300 250"><title>txt4b</title><g id="Layer_2" data-name="Layer 2"><g id="txt4b"><path d="M33.67,171.19c0,3.63-2.23,6.1-5.42,6.1a4.21,4.21,0,0,1-3.7-1.95v6.44H20.9V165.41h3.65v1.65a4.33,4.33,0,0,1,3.79-2C31.51,165.1,33.67,167.54,33.67,171.19Zm-3.74,0a2.77,2.77,0,1,0-2.74,3.05A2.77,2.77,0,0,0,29.93,171.19Z" fill="#fff"/><path d="M35.11,171.19c0-3.46,2.13-6.09,5.49-6.09a4,4,0,0,1,3.63,2v-1.65h3.65V177H44.23v-1.64a4.13,4.13,0,0,1-3.67,1.95C37.1,177.29,35.11,174.67,35.11,171.19Zm9.26,0a2.77,2.77,0,1,0-5.52,0,2.77,2.77,0,0,0,2.76,3.05C43.44,174.24,44.37,172.87,44.37,171.19Z" fill="#fff"/><path d="M62.42,165.41v11.21a5.44,5.44,0,0,1-1.66,4.17,6,6,0,0,1-4.24,1.35,6.47,6.47,0,0,1-4.28-1.2,4.13,4.13,0,0,1-1.44-3.05h3.7c.07,1,.62,1.56,2,1.56s2.23-.79,2.23-2.59v-1.8A3.88,3.88,0,0,1,55.08,177c-3,0-4.28-2-4.28-4.85v-6.72h3.68v6.17c0,1.48.5,2.49,2,2.49s2.23-1.15,2.23-2.93v-5.73Z" fill="#fff"/><path d="M65.44,165.41h3.68v1.68a3.94,3.94,0,0,1,6.93.14,4,4,0,0,1,3.7-2.13c3.31,0,4.1,2.28,4.1,4.7V177H80.16v-6.51c0-1.61-.6-2.28-1.73-2.28s-1.94.65-1.94,2.83v6h-3.7v-6.53c0-1.61-.58-2.26-1.71-2.26s-2,.65-2,2.83v6H65.44Z" fill="#fff"/><path d="M98,172.2H89.49c.07,1.51,1.08,2.33,2.71,2.33,1.13,0,1.85-.31,2.16-1H98c-.36,2.28-2.68,3.79-5.76,3.79-3.93,0-6.36-2.23-6.36-6.1s2.48-6.09,6.24-6.09c3.6,0,6,2.23,6,5.49A12.92,12.92,0,0,1,98,172.2Zm-3.53-2.28a2.18,2.18,0,0,0-2.45-2.35,2.32,2.32,0,0,0-2.57,2.35Z" fill="#fff"/><path d="M100.24,165.41h3.68v1.68a3.91,3.91,0,0,1,3.74-2c2.81,0,4.22,1.58,4.22,4.72V177h-3.69v-6c0-1.94-.55-2.83-2-2.83s-2.23,1-2.23,2.74v6h-3.68Z" fill="#fff"/><path d="M121.94,174.05V177a15,15,0,0,1-2.45.19c-1.73,0-4.1-.39-4.1-4.25v-4.61h-1.83v-2.9h1.83V162h3.67v3.44h2.62v2.9h-2.62v3.84c0,1.71.7,2,1.61,2A10,10,0,0,0,121.94,174.05Z" fill="#fff"/><path d="M123.14,173.5h3.65c0,.79.77,1.34,1.89,1.34.8,0,1.35-.38,1.35-1.06,0-.52-.27-.84-1.25-1.08l-2.42-.6a3.37,3.37,0,0,1-2.91-3.38c0-2.18,2-3.62,5-3.62,3.26,0,5.16,1.27,5.16,3.57h-3.63c0-.81-.6-1.25-1.58-1.25-.79,0-1.32.39-1.32.94s.33.86,1.27,1.1l2.45.67c1.82.49,2.93,1.59,2.93,3.34,0,2.4-2,3.82-5.07,3.82C125.32,177.29,123.14,175.75,123.14,173.5Z" fill="#fff"/><path d="M135.4,174.86a2.38,2.38,0,1,1,2.38,2.36A2.35,2.35,0,0,1,135.4,174.86Z" fill="#fff"/><rect width="300" height="250" fill="none"/></g></g></svg>