<svg xmlns="http://www.w3.org/2000/svg" viewBox="0 0 300 250"><title>txt4a</title><g id="Layer_2" data-name="Layer 2"><g id="txt4a"><path d="M30.26,149.94h-6l-.58,2h-4.1l5.69-16.81h3.91L34.94,152h-4.1Zm-.86-3.05-2.11-7.47-2.12,7.47Z" fill="#fff"/><path d="M36.69,140.41h3.68v1.68a3.91,3.91,0,0,1,3.74-2c2.81,0,4.22,1.58,4.22,4.72V152H44.64v-6c0-1.94-.55-2.83-2-2.83s-2.23,1-2.23,2.74v6H36.69Z" fill="#fff"/><path d="M63.19,135.17V152H59.54v-1.64a4.13,4.13,0,0,1-3.67,1.95c-3.46,0-5.45-2.62-5.45-6.1s2.14-6.09,5.5-6.09a4,4,0,0,1,3.62,2v-6.89Zm-3.5,11a2.77,2.77,0,1,0-5.52,0,2.77,2.77,0,1,0,5.52,0Z" fill="#fff"/><path d="M71.16,146.19c0-3.53,2.45-6.09,6.43-6.09S84,142.66,84,146.19s-2.45,6.1-6.41,6.1S71.16,149.72,71.16,146.19Zm9.19,0a2.77,2.77,0,1,0-2.76,3A2.71,2.71,0,0,0,80.35,146.19Z" fill="#fff"/><path d="M86.11,140.41h3.67v1.68a3.92,3.92,0,0,1,3.75-2c2.8,0,4.22,1.58,4.22,4.72V152h-3.7v-6c0-1.94-.55-2.83-2-2.83s-2.23,1-2.23,2.74v6H86.11Z" fill="#fff"/><path d="M100.61,135.17h3.67V152h-3.67Z" fill="#fff"/><path d="M106.87,137.17a2.21,2.21,0,0,1,2.25-2.26,2.25,2.25,0,1,1,0,4.49A2.2,2.2,0,0,1,106.87,137.17Zm.43,3.24H111V152H107.3Z" fill="#fff"/><path d="M114,140.41h3.67v1.68a3.91,3.91,0,0,1,3.74-2c2.81,0,4.23,1.58,4.23,4.72V152h-3.7v-6c0-1.94-.55-2.83-2-2.83s-2.23,1-2.23,2.74v6H114Z" fill="#fff"/><path d="M139.85,147.2H131.3c.07,1.51,1.08,2.33,2.71,2.33,1.13,0,1.85-.31,2.16-1h3.6c-.36,2.28-2.69,3.79-5.76,3.79-3.93,0-6.36-2.23-6.36-6.1s2.47-6.09,6.24-6.09c3.6,0,6.05,2.23,6.05,5.49A12.92,12.92,0,0,1,139.85,147.2Zm-3.53-2.28a2.18,2.18,0,0,0-2.45-2.35,2.32,2.32,0,0,0-2.57,2.35Z" fill="#fff"/><rect width="300" height="250" fill="none"/></g></g></svg>