<svg xmlns="http://www.w3.org/2000/svg" viewBox="0 0 728 90"><title>cta</title><g id="Layer_2" data-name="Layer 2"><g id="Layer_24" data-name="Layer 24"><path d="M668.53,28h-83a2.54,2.54,0,0,0-2.63,2.43V59.57A2.54,2.54,0,0,0,585.53,62H690.28a2.53,2.53,0,0,0,2.62-2.43V30.43A2.53,2.53,0,0,0,690.28,28Z" fill="none" stroke="#fff" stroke-miterlimit="10" stroke-width="1.21"/><path d="M607.48,46.81h1.61a1.84,1.84,0,0,0,1.95,2c1.06,0,1.65-.49,1.65-1.37s-.35-1.12-1.46-1.57l-1.6-.64a2.64,2.64,0,0,1-1.87-2.61c0-1.59,1.29-2.69,3.14-2.69A3,3,0,0,1,614.13,43h-1.61a1.52,1.52,0,0,0-1.68-1.69c-.92,0-1.46.47-1.46,1.21s.48,1.12,1.63,1.59l1.44.59a2.68,2.68,0,0,1,1.85,2.7c0,1.68-1.3,2.81-3.25,2.81C608.78,50.25,607.48,49,607.48,46.81Z" fill="#fff"/><path d="M621.8,45.91V50h-1.52V46.61c0-1.38-.37-2-1.43-2s-1.56.66-1.56,1.81V50h-1.52V40.21h1.52V44.4a2.34,2.34,0,0,1,2.13-1.08C621,43.32,621.8,44.2,621.8,45.91Z" fill="#fff"/><path d="M623.2,46.75a3.45,3.45,0,1,1,3.45,3.43A3.27,3.27,0,0,1,623.2,46.75Zm5.36,0a1.92,1.92,0,1,0-1.91,2.08A1.87,1.87,0,0,0,628.56,46.75Z" fill="#fff"/><path d="M638.38,46.75a3.18,3.18,0,0,1-3.21,3.43,2.53,2.53,0,0,1-2.1-1V53h-1.51V43.49h1.51v.88a2.65,2.65,0,0,1,2.2-1C637.13,43.32,638.38,44.69,638.38,46.75Zm-1.53,0a1.92,1.92,0,1,0-1.9,2.08A1.9,1.9,0,0,0,636.85,46.75Z" fill="#fff"/><path d="M643.35,43.49h1.52v.91A2.34,2.34,0,0,1,647,43.32c1.57,0,2.38.88,2.38,2.59V50h-1.52V46.61c0-1.38-.37-2-1.43-2s-1.56.66-1.56,1.81V50h-1.52Z" fill="#fff"/><path d="M650.78,46.75a3.45,3.45,0,1,1,3.45,3.43A3.27,3.27,0,0,1,650.78,46.75Zm5.36,0a1.92,1.92,0,1,0-1.91,2.08A1.87,1.87,0,0,0,656.14,46.75Z" fill="#fff"/><path d="M658,43.49h1.68L661,47.8l1.41-4.31h1.66l1.41,4.31,1.36-4.31h1.68L666.1,50h-1.29l-1.58-4.65L661.65,50h-1.29Z" fill="#fff"/><rect width="728" height="90" fill="none"/></g></g></svg>