<svg xmlns="http://www.w3.org/2000/svg" viewBox="0 0 728 90"><title>txt1a</title><g id="Layer_2" data-name="Layer 2"><g id="Layer_16_copy" data-name="Layer 16 copy"><path d="M401.64,33l3,5.33h-4.42l-2.64-4.66h-2v4.66h-3.89V21.56h7.15a5.84,5.84,0,0,1,6,6.07A5.85,5.85,0,0,1,401.64,33Zm-6.14-2.5h2.66a2.71,2.71,0,0,0,2.69-2.9,2.72,2.72,0,0,0-2.69-2.91H395.5Z" fill="#fff"/><path d="M418.13,33.58h-8.54c.07,1.51,1.08,2.33,2.71,2.33,1.13,0,1.85-.31,2.16-1h3.6c-.36,2.28-2.69,3.79-5.76,3.79-3.94,0-6.36-2.23-6.36-6.1s2.47-6.09,6.24-6.09c3.6,0,6.05,2.23,6.05,5.49A11.31,11.31,0,0,1,418.13,33.58ZM414.6,31.3A2.16,2.16,0,0,0,412.16,29a2.31,2.31,0,0,0-2.57,2.35Z" fill="#fff"/><path d="M420.34,26.79H424v1.68a3.92,3.92,0,0,1,3.75-2c2.8,0,4.22,1.58,4.22,4.73v7.15h-3.69v-6c0-1.94-.56-2.83-2.05-2.83s-2.23,1-2.23,2.74v6h-3.67Z" fill="#fff"/><path d="M442,35.43v2.93a15.14,15.14,0,0,1-2.45.19c-1.73,0-4.11-.38-4.11-4.25V29.69h-1.82v-2.9h1.82V23.36h3.68v3.43h2.61v2.9h-2.61v3.84c0,1.71.69,2,1.6,2A10.19,10.19,0,0,0,442,35.43Z" fill="#fff"/><path d="M443.72,23.55A2.21,2.21,0,0,1,446,21.29a2.25,2.25,0,1,1,0,4.49A2.2,2.2,0,0,1,443.72,23.55Zm.43,3.24h3.65V38.36h-3.65Z" fill="#fff"/><path d="M450.84,26.79h3.68v1.68a3.91,3.91,0,0,1,3.74-2c2.81,0,4.23,1.58,4.23,4.73v7.15h-3.7v-6c0-1.94-.55-2.83-2-2.83s-2.23,1-2.23,2.74v6h-3.68Z" fill="#fff"/><path d="M477.37,26.79V37.61a5.69,5.69,0,0,1-2.24,4.88,7.1,7.1,0,0,1-4.13,1,8,8,0,0,1-4.17-.94,4.18,4.18,0,0,1-2.07-3.21h3.75c.17.91,1,1.46,2.45,1.46,1.7,0,2.73-.74,2.73-2.81V36.49a4.07,4.07,0,0,1-3.62,1.87c-3.43,0-5.5-2.5-5.5-5.91s2.21-6,5.55-6a3.87,3.87,0,0,1,3.57,2V26.79Zm-3.51,5.71a2.77,2.77,0,1,0-5.52,0,2.77,2.77,0,1,0,5.52,0Z" fill="#fff"/><path d="M484.44,43.06V40.23a3.74,3.74,0,0,0,.89.1c.63,0,.94-.34.94-1.11V26.79h3.67V39.68c0,2.42-1.34,3.62-3.74,3.62A5,5,0,0,1,484.44,43.06Zm1.42-19.51a2.27,2.27,0,1,1,2.26,2.23A2.21,2.21,0,0,1,485.86,23.55Z" fill="#fff"/><path d="M492.84,33.94V26.79h3.72v6.34c0,1.58.53,2.44,1.92,2.44,1.56,0,2.24-1,2.24-2.57V26.79h3.64V38.36h-3.64V36.7a3.78,3.78,0,0,1-3.6,2C494.33,38.67,492.84,36.94,492.84,33.94Z" fill="#fff"/><path d="M506.57,34.88h3.65c0,.79.77,1.34,1.9,1.34.79,0,1.34-.38,1.34-1s-.26-.84-1.25-1.09l-2.42-.6a3.37,3.37,0,0,1-2.91-3.38c0-2.18,2-3.62,4.95-3.62,3.26,0,5.16,1.27,5.16,3.57h-3.63c0-.81-.6-1.25-1.58-1.25-.79,0-1.32.39-1.32.94s.33.87,1.27,1.1l2.45.68c1.82.48,2.93,1.58,2.93,3.33,0,2.4-2,3.82-5.07,3.82C508.75,38.67,506.57,37.13,506.57,34.88Z" fill="#fff"/><path d="M526.56,35.43v2.93a14.89,14.89,0,0,1-2.44.19c-1.73,0-4.11-.38-4.11-4.25V29.69h-1.82v-2.9H520V23.36h3.67v3.43h2.62v2.9h-2.62v3.84c0,1.71.7,2,1.61,2A9.92,9.92,0,0,0,526.56,35.43Z" fill="#fff"/><rect width="728" height="90" fill="none"/></g></g></svg>