<svg xmlns="http://www.w3.org/2000/svg" viewBox="0 0 728 90"><title>txt1b</title><g id="Layer_2" data-name="Layer 2"><g id="Layer_16" data-name="Layer 16"><path d="M403.45,52.79V63.61a5.69,5.69,0,0,1-2.24,4.88,7.1,7.1,0,0,1-4.13,1,8,8,0,0,1-4.17-.94,4.18,4.18,0,0,1-2.07-3.21h3.75c.17.91,1,1.46,2.45,1.46,1.7,0,2.73-.74,2.73-2.81V62.49a4.07,4.07,0,0,1-3.62,1.87c-3.43,0-5.5-2.5-5.5-5.91s2.21-6,5.55-6a3.87,3.87,0,0,1,3.57,2V52.79Zm-3.51,5.71a2.77,2.77,0,1,0-2.78,3A2.77,2.77,0,0,0,399.94,58.5Z" fill="#fff"/><path d="M405.56,58.57c0-3.53,2.44-6.09,6.43-6.09s6.41,2.56,6.41,6.09-2.45,6.1-6.41,6.1S405.56,62.1,405.56,58.57Zm9.19,0a2.77,2.77,0,1,0-5.52,0,2.77,2.77,0,1,0,5.52,0Z" fill="#fff"/><path d="M427.8,61.43v2.93a14.89,14.89,0,0,1-2.44.19c-1.73,0-4.11-.38-4.11-4.25V55.69h-1.82v-2.9h1.82V49.36h3.67v3.43h2.62v2.9h-2.62v3.84c0,1.71.7,2,1.61,2A9.92,9.92,0,0,0,427.8,61.43Z" fill="#fff"/><path d="M447,59.58h-8.55c.08,1.51,1.08,2.33,2.72,2.33,1.13,0,1.84-.31,2.16-1H447c-.36,2.28-2.69,3.79-5.76,3.79-3.94,0-6.36-2.23-6.36-6.1s2.47-6.09,6.24-6.09c3.6,0,6,2.23,6,5.49A12.92,12.92,0,0,1,447,59.58ZM443.5,57.3A2.17,2.17,0,0,0,441.05,55a2.32,2.32,0,0,0-2.57,2.35Z" fill="#fff"/><path d="M448.59,58.57c0-3.45,2.13-6.09,5.49-6.09a4,4,0,0,1,3.63,2V52.79h3.65V64.36h-3.65V62.72a4.16,4.16,0,0,1-3.67,2C450.58,64.67,448.59,62.05,448.59,58.57Zm9.26,0a2.77,2.77,0,1,0-5.52,0,2.77,2.77,0,0,0,2.76,3C456.92,61.62,457.85,60.25,457.85,58.57Z" fill="#fff"/><path d="M463.56,60.88h3.65c0,.79.77,1.34,1.9,1.34.79,0,1.34-.38,1.34-1s-.26-.84-1.25-1.09l-2.42-.6a3.36,3.36,0,0,1-2.9-3.38c0-2.18,2-3.62,4.94-3.62,3.26,0,5.16,1.27,5.16,3.57h-3.62c0-.81-.6-1.25-1.59-1.25-.79,0-1.32.39-1.32.94s.34.87,1.27,1.1l2.45.68c1.83.48,2.93,1.58,2.93,3.33,0,2.4-2,3.82-5.06,3.82C465.75,64.67,463.56,63.13,463.56,60.88Z" fill="#fff"/><path d="M476,49.55a2.21,2.21,0,0,1,2.25-2.26,2.25,2.25,0,1,1,0,4.49A2.2,2.2,0,0,1,476,49.55Zm.43,3.24H480V64.36h-3.65Z" fill="#fff"/><path d="M494.36,59.58h-8.55c.07,1.51,1.08,2.33,2.71,2.33,1.13,0,1.85-.31,2.16-1h3.6c-.36,2.28-2.68,3.79-5.76,3.79-3.93,0-6.36-2.23-6.36-6.1s2.48-6.09,6.24-6.09c3.6,0,6.05,2.23,6.05,5.49A12.92,12.92,0,0,1,494.36,59.58Zm-3.53-2.28A2.18,2.18,0,0,0,488.38,55a2.32,2.32,0,0,0-2.57,2.35Z" fill="#fff"/><path d="M496.56,52.79h3.68v2.42a3.22,3.22,0,0,1,3.19-2.61,3.72,3.72,0,0,1,1,.09V56.1a8,8,0,0,0-1.11-.07c-2,0-3,1.29-3,3.86v4.47h-3.68Z" fill="#fff"/><path d="M504.53,62.25a2.38,2.38,0,1,1,2.38,2.35A2.35,2.35,0,0,1,504.53,62.25Z" fill="#fff"/><rect width="728" height="90" fill="none"/></g></g></svg>