<svg xmlns="http://www.w3.org/2000/svg" viewBox="0 0 728 90"><title>txt2b</title><g id="Layer_2" data-name="Layer 2"><g id="Layer_18" data-name="Layer 18"><path d="M403.26,58.57c0,3.63-2.23,6.1-5.42,6.1a4.21,4.21,0,0,1-3.7-2v6.44h-3.65V52.79h3.65v1.65a4.33,4.33,0,0,1,3.79-2C401.1,52.48,403.26,54.92,403.26,58.57Zm-3.74,0a2.77,2.77,0,1,0-2.74,3A2.77,2.77,0,0,0,399.52,58.57Z" fill="#fff"/><path d="M405.47,52.79h3.67v2.42a3.23,3.23,0,0,1,3.19-2.61,3.72,3.72,0,0,1,1,.09V56.1a7.92,7.92,0,0,0-1.1-.07c-2,0-3.05,1.29-3.05,3.86v4.47h-3.67Z" fill="#fff"/><path d="M414.28,58.57c0-3.53,2.44-6.09,6.43-6.09s6.41,2.56,6.41,6.09-2.45,6.1-6.41,6.1S414.28,62.1,414.28,58.57Zm9.19,0a2.77,2.77,0,1,0-5.52,0,2.77,2.77,0,1,0,5.52,0Z" fill="#fff"/><path d="M442,58.57c0,3.63-2.24,6.1-5.43,6.1a4.2,4.2,0,0,1-3.69-2v6.44h-3.65V52.79h3.65v1.65a4.33,4.33,0,0,1,3.79-2C439.84,52.48,442,54.92,442,58.57Zm-3.75,0a2.77,2.77,0,1,0-2.73,3A2.77,2.77,0,0,0,438.25,58.57Z" fill="#fff"/><path d="M455.56,59.58H447c.07,1.51,1.08,2.33,2.71,2.33,1.13,0,1.85-.31,2.16-1h3.6c-.36,2.28-2.68,3.79-5.76,3.79-3.93,0-6.36-2.23-6.36-6.1s2.48-6.09,6.24-6.09c3.6,0,6,2.23,6,5.49A12.92,12.92,0,0,1,455.56,59.58ZM452,57.3A2.18,2.18,0,0,0,449.58,55,2.32,2.32,0,0,0,447,57.3Z" fill="#fff"/><path d="M457.76,52.79h3.68v2.42a3.22,3.22,0,0,1,3.19-2.61,3.72,3.72,0,0,1,1,.09V56.1a8,8,0,0,0-1.11-.07c-2,0-3,1.29-3,3.86v4.47h-3.68Z" fill="#fff"/><path d="M475.38,61.43v2.93a15,15,0,0,1-2.45.19c-1.73,0-4.1-.38-4.1-4.25V55.69H467v-2.9h1.83V49.36h3.67v3.43h2.61v2.9H472.5v3.84c0,1.71.69,2,1.61,2A10.13,10.13,0,0,0,475.38,61.43Z" fill="#fff"/><path d="M477.06,49.55a2.21,2.21,0,0,1,2.25-2.26,2.25,2.25,0,1,1,0,4.49A2.2,2.2,0,0,1,477.06,49.55Zm.43,3.24h3.65V64.36h-3.65Z" fill="#fff"/><path d="M495.47,59.58h-8.55c.07,1.51,1.08,2.33,2.71,2.33,1.13,0,1.85-.31,2.16-1h3.61c-.36,2.28-2.69,3.79-5.77,3.79-3.93,0-6.36-2.23-6.36-6.1s2.48-6.09,6.25-6.09c3.6,0,6,2.23,6,5.49A12.92,12.92,0,0,1,495.47,59.58Zm-3.53-2.28A2.17,2.17,0,0,0,489.49,55a2.32,2.32,0,0,0-2.57,2.35Z" fill="#fff"/><path d="M496.88,60.88h3.65c0,.79.77,1.34,1.9,1.34.79,0,1.34-.38,1.34-1s-.26-.84-1.25-1.09l-2.42-.6a3.37,3.37,0,0,1-2.91-3.38c0-2.18,2-3.62,4.95-3.62,3.26,0,5.16,1.27,5.16,3.57h-3.63c0-.81-.6-1.25-1.58-1.25-.79,0-1.32.39-1.32.94s.34.87,1.27,1.1l2.45.68c1.82.48,2.93,1.58,2.93,3.33,0,2.4-2,3.82-5.07,3.82C499.07,64.67,496.88,63.13,496.88,60.88Z" fill="#fff"/><path d="M509.15,62.25a2.38,2.38,0,1,1,2.37,2.35A2.35,2.35,0,0,1,509.15,62.25Z" fill="#fff"/><rect width="728" height="90" fill="none"/></g></g></svg>