<svg xmlns="http://www.w3.org/2000/svg" viewBox="0 0 728 90"><title>txt2a</title><g id="Layer_2" data-name="Layer 2"><g id="Layer_18_copy" data-name="Layer 18 copy"><path d="M393.71,25H389.1V21.56h13.1V25h-4.63V38.36h-3.86Z" fill="#fff"/><path d="M415.48,31.21v7.15h-3.7v-6c0-1.94-.55-2.83-2-2.83s-2.23,1-2.23,2.74v6h-3.67V21.56h3.67v6.91a3.91,3.91,0,0,1,3.74-2C414.06,26.48,415.48,28.06,415.48,31.21Z" fill="#fff"/><path d="M429.68,33.58h-8.54c.07,1.51,1.08,2.33,2.71,2.33,1.13,0,1.85-.31,2.16-1h3.6c-.36,2.28-2.69,3.79-5.76,3.79-3.93,0-6.36-2.23-6.36-6.1s2.47-6.09,6.24-6.09c3.6,0,6,2.23,6,5.49A11.31,11.31,0,0,1,429.68,33.58Zm-3.52-2.28A2.18,2.18,0,0,0,423.71,29a2.31,2.31,0,0,0-2.57,2.35Z" fill="#fff"/><path d="M437.72,26.79h3.68v1.68a3.94,3.94,0,0,1,6.93.14,4,4,0,0,1,3.7-2.13c3.31,0,4.1,2.28,4.1,4.7v7.18h-3.69V31.85c0-1.61-.6-2.28-1.73-2.28s-1.95.65-1.95,2.83v6h-3.69V31.83c0-1.61-.58-2.26-1.71-2.26s-2,.65-2,2.83v6h-3.68Z" fill="#fff"/><path d="M458.12,32.57c0-3.53,2.45-6.09,6.44-6.09S471,29,471,32.57s-2.44,6.1-6.4,6.1S458.12,36.1,458.12,32.57Zm9.2,0a2.77,2.77,0,1,0-5.52,0,2.77,2.77,0,1,0,5.52,0Z" fill="#fff"/><path d="M472.28,34.88h3.65c0,.79.77,1.34,1.9,1.34.79,0,1.34-.38,1.34-1s-.26-.84-1.25-1.09l-2.42-.6a3.37,3.37,0,0,1-2.91-3.38c0-2.18,2-3.62,5-3.62,3.26,0,5.16,1.27,5.16,3.57h-3.62c0-.81-.6-1.25-1.59-1.25-.79,0-1.32.39-1.32.94s.34.87,1.27,1.1l2.45.68c1.83.48,2.93,1.58,2.93,3.33,0,2.4-2,3.82-5.06,3.82C474.47,38.67,472.28,37.13,472.28,34.88Z" fill="#fff"/><path d="M492.28,35.43v2.93a15.14,15.14,0,0,1-2.45.19c-1.73,0-4.11-.38-4.11-4.25V29.69H483.9v-2.9h1.82V23.36h3.68v3.43H492v2.9H489.4v3.84c0,1.71.69,2,1.6,2A10.19,10.19,0,0,0,492.28,35.43Z" fill="#fff"/><path d="M500.22,26.79h3.67v2.42a3.23,3.23,0,0,1,3.19-2.61,3.63,3.63,0,0,1,1,.09V30.1a7.82,7.82,0,0,0-1.1-.07c-2,0-3.05,1.29-3.05,3.86v4.47h-3.67Z" fill="#fff"/><path d="M521.22,33.58h-8.54c.07,1.51,1.08,2.33,2.71,2.33,1.13,0,1.85-.31,2.16-1h3.6c-.36,2.28-2.69,3.79-5.76,3.79-3.94,0-6.36-2.23-6.36-6.1s2.47-6.09,6.24-6.09c3.6,0,6.05,2.23,6.05,5.49A13,13,0,0,1,521.22,33.58Zm-3.53-2.28A2.17,2.17,0,0,0,515.24,29a2.31,2.31,0,0,0-2.56,2.35Z" fill="#fff"/><path d="M523.43,26.79h3.67v1.68a3.91,3.91,0,0,1,3.74-2c2.81,0,4.23,1.58,4.23,4.73v7.15h-3.7v-6c0-1.94-.55-2.83-2-2.83s-2.23,1-2.23,2.74v6h-3.67Z" fill="#fff"/><path d="M545.12,35.43v2.93a14.89,14.89,0,0,1-2.44.19c-1.73,0-4.11-.38-4.11-4.25V29.69h-1.82v-2.9h1.82V23.36h3.67v3.43h2.62v2.9h-2.62v3.84c0,1.71.7,2,1.61,2A9.92,9.92,0,0,0,545.12,35.43Z" fill="#fff"/><path d="M546.32,32.57c0-3.45,2.14-6.09,5.5-6.09a4,4,0,0,1,3.62,2V26.79h3.65V38.36h-3.65V36.72a4.13,4.13,0,0,1-3.67,2C548.32,38.67,546.32,36.05,546.32,32.57Zm9.27,0a2.77,2.77,0,1,0-5.52,0,2.77,2.77,0,1,0,5.52,0Z" fill="#fff"/><path d="M562.14,21.56h3.67v16.8h-3.67Z" fill="#fff"/><rect width="728" height="90" fill="none"/></g></g></svg>