<svg xmlns="http://www.w3.org/2000/svg" viewBox="0 0 728 90"><title>txt3b</title><g id="Layer_2" data-name="Layer 2"><g id="Layer_20" data-name="Layer 20"><path d="M389.65,58.57c0-3.45,2.14-6.09,5.5-6.09a4,4,0,0,1,3.62,2V52.79h3.65V64.36h-3.65V62.72a4.13,4.13,0,0,1-3.67,2C391.64,64.67,389.65,62.05,389.65,58.57Zm9.27,0a2.77,2.77,0,1,0-5.52,0,2.77,2.77,0,1,0,5.52,0Z" fill="#fff"/><path d="M418.24,58.57c0,3.63-2.24,6.1-5.43,6.1a4.2,4.2,0,0,1-3.69-2v6.44h-3.65V52.79h3.65v1.65a4.33,4.33,0,0,1,3.79-2C416.08,52.48,418.24,54.92,418.24,58.57Zm-3.75,0a2.77,2.77,0,1,0-2.73,3A2.77,2.77,0,0,0,414.49,58.57Z" fill="#fff"/><path d="M433.21,58.57c0,3.63-2.23,6.1-5.42,6.1a4.21,4.21,0,0,1-3.7-2v6.44h-3.65V52.79h3.65v1.65a4.36,4.36,0,0,1,3.79-2C431.05,52.48,433.21,54.92,433.21,58.57Zm-3.74,0a2.77,2.77,0,1,0-2.74,3A2.77,2.77,0,0,0,429.47,58.57Z" fill="#fff"/><path d="M435.42,47.56h3.67v16.8h-3.67Z" fill="#fff"/><path d="M441.68,49.55a2.27,2.27,0,1,1,2.26,2.23A2.21,2.21,0,0,1,441.68,49.55Zm.43,3.24h3.65V64.36h-3.65Z" fill="#fff"/><path d="M447.9,58.57c0-3.65,2.37-6.09,6.19-6.09,3.46,0,5.71,1.82,6,4.7h-3.67c-.26-1.08-1-1.58-2.31-1.58-1.58,0-2.54,1-2.54,3s1,3,2.54,3c1.35,0,2.05-.48,2.31-1.49h3.67c-.29,2.81-2.54,4.61-6,4.61C450.27,64.67,447.9,62.22,447.9,58.57Z" fill="#fff"/><path d="M461.55,58.57c0-3.45,2.14-6.09,5.5-6.09a4,4,0,0,1,3.63,2V52.79h3.64V64.36h-3.64V62.72a4.16,4.16,0,0,1-3.68,2C463.55,64.67,461.55,62.05,461.55,58.57Zm9.27,0a2.77,2.77,0,1,0-5.52,0,2.77,2.77,0,1,0,5.52,0Z" fill="#fff"/><path d="M484.72,61.43v2.93a15.14,15.14,0,0,1-2.45.19c-1.73,0-4.11-.38-4.11-4.25V55.69h-1.82v-2.9h1.82V49.36h3.67v3.43h2.62v2.9h-2.62v3.84c0,1.71.7,2,1.61,2A10.19,10.19,0,0,0,484.72,61.43Z" fill="#fff"/><path d="M486.39,49.55a2.27,2.27,0,1,1,2.26,2.23A2.21,2.21,0,0,1,486.39,49.55Zm.44,3.24h3.65V64.36h-3.65Z" fill="#fff"/><path d="M492.61,58.57c0-3.53,2.45-6.09,6.43-6.09s6.41,2.56,6.41,6.09-2.45,6.1-6.41,6.1S492.61,62.1,492.61,58.57Zm9.19,0a2.77,2.77,0,1,0-5.52,0,2.77,2.77,0,1,0,5.52,0Z" fill="#fff"/><path d="M507.56,52.79h3.67v1.68a3.94,3.94,0,0,1,3.75-2q4.21,0,4.22,4.73v7.15h-3.69v-6c0-1.94-.56-2.83-2-2.83s-2.24,1-2.24,2.74v6h-3.67Z" fill="#fff"/><path d="M521.29,60.88h3.65c0,.79.77,1.34,1.89,1.34.8,0,1.35-.38,1.35-1s-.27-.84-1.25-1.09l-2.42-.6a3.37,3.37,0,0,1-2.91-3.38c0-2.18,2-3.62,4.95-3.62,3.26,0,5.16,1.27,5.16,3.57h-3.63c0-.81-.6-1.25-1.58-1.25-.79,0-1.32.39-1.32.94s.33.87,1.27,1.1l2.45.68c1.82.48,2.93,1.58,2.93,3.33,0,2.4-2,3.82-5.07,3.82C523.47,64.67,521.29,63.13,521.29,60.88Z" fill="#fff"/><path d="M533.55,62.25a2.38,2.38,0,1,1,2.38,2.35A2.36,2.36,0,0,1,533.55,62.25Z" fill="#fff"/><polyline points="728 0 728 90 0 90 0 0" fill="none"/></g></g></svg>