<svg xmlns="http://www.w3.org/2000/svg" viewBox="0 0 728 90"><title>txt3a</title><g id="Layer_2" data-name="Layer 2"><g id="Layer_20" data-name="Layer 20"><polyline points="728 0 728 90 0 90 0 0" fill="none"/></g><g id="Layer_20_copy" data-name="Layer 20 copy"><path d="M389.63,30a9,9,0,0,1,17.95,0,9,9,0,0,1-17.95,0Zm13.89,0c0-2.93-1.72-5.4-4.92-5.4S393.66,27,393.68,30s1.71,5.4,4.92,5.4S403.52,32.88,403.52,30Z" fill="#fff"/><path d="M409.72,26.79h3.67v1.68a3.91,3.91,0,0,1,3.74-2c2.81,0,4.23,1.58,4.23,4.73v7.15h-3.7v-6c0-1.94-.55-2.83-2-2.83s-2.23,1-2.23,2.74v6h-3.67Z" fill="#fff"/><path d="M424.21,21.56h3.67v16.8h-3.67Z" fill="#fff"/><path d="M430.48,23.55a2.21,2.21,0,0,1,2.25-2.26,2.25,2.25,0,1,1,0,4.49A2.2,2.2,0,0,1,430.48,23.55Zm.43,3.24h3.65V38.36h-3.65Z" fill="#fff"/><path d="M437.6,26.79h3.68v1.68a3.91,3.91,0,0,1,3.74-2q4.22,0,4.22,4.73v7.15h-3.69v-6c0-1.94-.55-2.83-2-2.83s-2.23,1-2.23,2.74v6H437.6Z" fill="#fff"/><path d="M463.45,33.58h-8.54c.07,1.51,1.08,2.33,2.71,2.33,1.13,0,1.85-.31,2.16-1h3.6c-.36,2.28-2.69,3.79-5.76,3.79-3.94,0-6.36-2.23-6.36-6.1s2.47-6.09,6.24-6.09c3.6,0,6.05,2.23,6.05,5.49A13,13,0,0,1,463.45,33.58Zm-3.53-2.28A2.16,2.16,0,0,0,457.48,29a2.31,2.31,0,0,0-2.57,2.35Z" fill="#fff"/><rect width="728" height="90" fill="none"/></g></g></svg>