<svg xmlns="http://www.w3.org/2000/svg" viewBox="0 0 728 90"><title>txt4b</title><g id="Layer_2" data-name="Layer 2"><g id="Layer_22" data-name="Layer 22"><path d="M403.26,58.57c0,3.63-2.23,6.1-5.42,6.1a4.2,4.2,0,0,1-3.7-1.94v6.43h-3.65V52.79h3.65v1.65a4.33,4.33,0,0,1,3.79-2C401.1,52.48,403.26,54.93,403.26,58.57Zm-3.74,0a2.77,2.77,0,1,0-2.74,3A2.77,2.77,0,0,0,399.52,58.57Z" fill="#fff"/><path d="M404.7,58.57c0-3.45,2.14-6.09,5.5-6.09a4,4,0,0,1,3.62,2V52.79h3.65V64.36h-3.65V62.73a4.15,4.15,0,0,1-3.67,1.94C406.69,64.67,404.7,62.05,404.7,58.57Zm9.26,0a2.77,2.77,0,1,0-5.52,0,2.77,2.77,0,0,0,2.76,3C413,61.62,414,60.25,414,58.57Z" fill="#fff"/><path d="M432,52.79V64a5.45,5.45,0,0,1-1.65,4.17,6.07,6.07,0,0,1-4.25,1.35,6.44,6.44,0,0,1-4.27-1.2,4.1,4.1,0,0,1-1.44-3h3.69c.07,1,.63,1.56,2,1.56s2.23-.79,2.23-2.59v-1.8a3.88,3.88,0,0,1-3.67,1.92c-2.95,0-4.27-2-4.27-4.85V52.79h3.67V59c0,1.48.5,2.49,2,2.49s2.23-1.15,2.23-2.93V52.79Z" fill="#fff"/><path d="M435,52.79h3.67v1.68a3.94,3.94,0,0,1,6.93.14,4.05,4.05,0,0,1,3.7-2.13c3.31,0,4.11,2.28,4.11,4.7v7.18h-3.7V57.85c0-1.61-.6-2.28-1.73-2.28s-1.94.65-1.94,2.83v6h-3.7V57.83c0-1.61-.58-2.26-1.7-2.26s-2,.65-2,2.83v6H435Z" fill="#fff"/><path d="M467.63,59.58h-8.55c.08,1.51,1.08,2.33,2.72,2.33,1.12,0,1.84-.31,2.16-1h3.6c-.36,2.28-2.69,3.79-5.76,3.79-3.94,0-6.37-2.23-6.37-6.1s2.48-6.09,6.25-6.09c3.6,0,6,2.23,6,5.49A12.92,12.92,0,0,1,467.63,59.58ZM464.1,57.3A2.18,2.18,0,0,0,461.65,55a2.32,2.32,0,0,0-2.57,2.35Z" fill="#fff"/><path d="M469.83,52.79h3.68v1.68a3.91,3.91,0,0,1,3.74-2c2.81,0,4.23,1.58,4.23,4.72v7.16h-3.7v-6c0-1.94-.55-2.83-2-2.83s-2.23,1-2.23,2.74v6h-3.68Z" fill="#fff"/><path d="M491.53,61.43v2.93a15,15,0,0,1-2.45.19c-1.73,0-4.1-.38-4.1-4.25V55.69h-1.83v-2.9H485V49.36h3.67v3.43h2.62v2.9h-2.62v3.84c0,1.71.7,2,1.61,2A9.92,9.92,0,0,0,491.53,61.43Z" fill="#fff"/><path d="M492.73,60.88h3.65c0,.79.77,1.34,1.9,1.34.79,0,1.34-.38,1.34-1s-.26-.84-1.25-1.08L496,59.48A3.37,3.37,0,0,1,493,56.1c0-2.18,2-3.62,4.95-3.62,3.26,0,5.16,1.27,5.16,3.57h-3.63c0-.81-.6-1.25-1.58-1.25-.79,0-1.32.39-1.32.94s.34.87,1.27,1.11l2.45.67c1.82.48,2.93,1.58,2.93,3.33,0,2.4-2,3.82-5.07,3.82C494.92,64.67,492.73,63.13,492.73,60.88Z" fill="#fff"/><path d="M505,62.25a2.38,2.38,0,1,1,2.37,2.35A2.35,2.35,0,0,1,505,62.25Z" fill="#fff"/><polyline points="728 0 728 90 0 90 0 0" fill="none"/></g></g></svg>