<svg xmlns="http://www.w3.org/2000/svg" viewBox="0 0 728 90"><title>txt4a</title><g id="Layer_2" data-name="Layer 2"><g id="Layer_22_copy" data-name="Layer 22 copy"><path d="M399.85,36.32h-6l-.58,2h-4.1l5.69-16.8h3.91l5.71,16.8h-4.1Zm-.86-3-2.11-7.47-2.12,7.47Z" fill="#fff"/><path d="M406.28,26.79H410v1.68a3.91,3.91,0,0,1,3.74-2c2.81,0,4.22,1.58,4.22,4.72v7.16h-3.69v-6c0-1.94-.55-2.83-2-2.83s-2.23,1-2.23,2.74v6h-3.68Z" fill="#fff"/><path d="M432.78,21.56v16.8h-3.65V36.73a4.15,4.15,0,0,1-3.67,1.94c-3.46,0-5.45-2.62-5.45-6.1s2.14-6.09,5.5-6.09a4,4,0,0,1,3.62,2V21.56Zm-3.5,11a2.77,2.77,0,1,0-5.52,0,2.77,2.77,0,1,0,5.52,0Z" fill="#fff"/><path d="M440.75,32.57c0-3.53,2.45-6.09,6.43-6.09s6.41,2.56,6.41,6.09-2.45,6.1-6.41,6.1S440.75,36.1,440.75,32.57Zm9.19,0a2.77,2.77,0,1,0-5.52,0,2.77,2.77,0,1,0,5.52,0Z" fill="#fff"/><path d="M455.7,26.79h3.67v1.68a3.92,3.92,0,0,1,3.75-2c2.8,0,4.22,1.58,4.22,4.72v7.16h-3.7v-6c0-1.94-.55-2.83-2-2.83s-2.23,1-2.23,2.74v6H455.7Z" fill="#fff"/><path d="M470.2,21.56h3.67v16.8H470.2Z" fill="#fff"/><path d="M476.46,23.55a2.27,2.27,0,1,1,2.26,2.23A2.21,2.21,0,0,1,476.46,23.55Zm.43,3.24h3.65V38.36h-3.65Z" fill="#fff"/><path d="M483.59,26.79h3.67v1.68a3.91,3.91,0,0,1,3.74-2c2.81,0,4.23,1.58,4.23,4.72v7.16h-3.7v-6c0-1.94-.55-2.83-2-2.83s-2.23,1-2.23,2.74v6h-3.67Z" fill="#fff"/><path d="M509.44,33.58h-8.55c.07,1.51,1.08,2.33,2.71,2.33,1.13,0,1.85-.31,2.16-1h3.6c-.36,2.28-2.68,3.79-5.76,3.79-3.93,0-6.36-2.23-6.36-6.1s2.48-6.09,6.24-6.09c3.6,0,6,2.23,6,5.49A12.92,12.92,0,0,1,509.44,33.58Zm-3.53-2.28A2.18,2.18,0,0,0,503.46,29a2.32,2.32,0,0,0-2.57,2.35Z" fill="#fff"/><rect width="728" height="90" fill="none"/></g></g></svg>